<?xml version="1.0" standalone="no"?>
<!DOCTYPE svg PUBLIC "-//W3C//DTD SVG 1.1//EN" "http://www.w3.org/Graphics/SVG/1.1/DTD/svg11.dtd" >
<svg>
<metadata>
Created by FontForge 20110222 at Thu May  2 04:39:53 2013
 By Ubuntu
(c) Copyright 1995-1997 International Typeface Corporation  All rights reserved.
</metadata>
<defs>
<font id="BlairITC-Light" horiz-adv-x="500" >
  <font-face 
    font-family="Blair ITC Light"
    font-weight="400"
    font-stretch="normal"
    units-per-em="1000"
    panose-1="2 0 4 5 3 0 0 2 0 4"
    ascent="800"
    descent="-200"
    x-height="615"
    cap-height="724"
    bbox="-212 -236 1492 927"
    underline-thickness="63"
    underline-position="-48"
    unicode-range="U+0020-FB02"
  />
<missing-glyph 
 />
    <glyph glyph-name=".notdef" 
 />
    <glyph glyph-name="space" unicode=" " horiz-adv-x="270" 
 />
    <glyph glyph-name="space" unicode="&#xa0;" horiz-adv-x="270" 
 />
    <glyph glyph-name="exclam" unicode="!" horiz-adv-x="320" 
d="M206 695v29h-91v-30l15 -550h61zM220 0v63h-120v-63h120z" />
    <glyph glyph-name="quotedbl" unicode="&#x22;" horiz-adv-x="278" 
d="M97 700h-49v-270h49v270zM231 700h-50v-270h50v270z" />
    <glyph glyph-name="numbersign" unicode="#" horiz-adv-x="912" 
d="M715 534v50h-89l20 140h-49l-22 -140h-199l21 140h-50l-22 -140h-104v-50h97l-27 -177h-105v-50h98l-29 -191h52l29 191h198l-29 -191h52l27 191h99v50h-91l27 177h96zM568 534l-27 -177h-199l27 177h199z" />
    <glyph glyph-name="dollar" unicode="$" horiz-adv-x="912" 
d="M480 404v268q126 -3 239 -63l39 48q-51 32 -119.5 49t-158.5 22v39h-59v-38q-151 -5 -227.5 -58.5t-76.5 -149.5q0 -88 74.5 -129t229.5 -41v-305q-157 11 -284 98l-30 -48q56 -48 133.5 -73t180.5 -32v-57h59v56q162 3 243.5 58.5t81.5 158.5q0 102 -79.5 148.5
t-245.5 48.5zM421 408q-121 0 -179.5 28t-58.5 92q0 141 238 146v-266zM480 44v305q259 -3 259 -148q0 -69 -65.5 -111t-193.5 -46z" />
    <glyph glyph-name="percent" unicode="%" horiz-adv-x="1078" 
d="M980 182q0 82 -53 137q-57 60 -134 60q-76 0 -133 -60q-52 -55 -52 -137t52 -136q56 -59 133 -59q76 0 133 59q26 27 40 62t14 74zM885 724h-79l-613 -734h80zM470 542q0 81 -54 137q-57 60 -133 60t-133 -60q-52 -55 -52 -137q0 -40 13 -75.5t39 -61.5q27 -29 61 -43.5
t72 -14.5q77 0 133 58q26 27 40 62.5t14 74.5zM924 182q0 -30 -10.5 -57t-28.5 -46.5t-41.5 -31t-50.5 -11.5t-50.5 11.5t-41 31t-28 46t-10.5 57.5t10.5 57.5t28.5 46.5t41.5 31.5t49.5 11.5t50 -11.5t42 -31.5t28.5 -46.5t10.5 -57.5zM414 542q0 -30 -10.5 -57
t-28.5 -46.5t-41.5 -31t-50.5 -11.5t-50.5 11.5t-41 31t-28 46t-10.5 57.5t10.5 57.5t28.5 46.5t41.5 31.5t49.5 11.5t50 -11.5t42 -31.5t28.5 -46.5t10.5 -57.5z" />
    <glyph glyph-name="ampersand" unicode="&#x26;" horiz-adv-x="971" 
d="M878 -1v63q-104 8 -191 60q88 72 151 230h-66q-28 -67 -58.5 -115t-69.5 -76q-109 98 -188 218q103 20 156 68t53 118q0 37 -12.5 68t-36 53t-55.5 34.5t-71 12.5t-72.5 -13t-58 -36.5t-38 -55.5t-13.5 -69q0 -61 56 -144q-135 -29 -203 -85.5t-68 -137.5q0 -44 18.5 -81
t53 -65t82.5 -43.5t108 -15.5q80 0 153.5 23.5t133.5 69.5q108 -69 236 -81zM424 427q-52 68 -52 128q0 53 32.5 85.5t86.5 32.5q50 0 80.5 -30t30.5 -78q0 -55 -45 -92t-133 -46zM599 123q-61 -38 -117.5 -57t-112.5 -19q-95 0 -149.5 40t-54.5 105q0 63 59 107.5t174 64.5
q86 -129 201 -241z" />
    <glyph glyph-name="quotesingle" unicode="'" horiz-adv-x="144" 
d="M97 700h-49v-270h49v270z" />
    <glyph glyph-name="parenleft" unicode="(" horiz-adv-x="443" 
d="M368 -141v34q-42 2 -70.5 28.5t-52.5 79.5t-41.5 138t-17.5 185q0 115 22.5 206.5t54.5 149.5q21 38 45.5 57.5t59.5 21.5v34q-53 -2 -92 -29t-71 -81q-18 -29 -33 -68t-26 -85t-17.5 -98.5t-6.5 -107.5q0 -113 23.5 -205.5t58.5 -150.5q32 -54 71 -80.5t93 -28.5z" />
    <glyph glyph-name="parenright" unicode=")" horiz-adv-x="443" 
d="M75 793v-34q35 -3 59.5 -22t45.5 -57q32 -57 54.5 -149t22.5 -207q0 -100 -18 -184.5t-42 -138.5q-24 -53 -52 -79t-70 -29v-34q54 2 92.5 28.5t70.5 80.5q35 58 59 151t24 205t-24 206t-59 153q-32 54 -71 81t-92 29z" />
    <glyph glyph-name="asterisk" unicode="*" horiz-adv-x="620" 
d="M512 559l-19 58l-165 -74l9 181h-61l20 -180l-169 65l-19 -59l179 -35l-116 -142l50 -36l94 160l100 -154l49 36l-123 138z" />
    <glyph glyph-name="plus" unicode="+" horiz-adv-x="336" 
d="M215 0v615h-64q-44 -32 -100 -55v-53l99 45v-552h65z" />
    <glyph glyph-name="comma" unicode="," horiz-adv-x="320" 
d="M220 -30v93h-120v-63h69v-31q0 -46 -62 -51v-30h16q51 0 74 19t23 63z" />
    <glyph glyph-name="hyphen" unicode="-" horiz-adv-x="437" 
d="M377 292v63h-317v-63h317z" />
    <glyph glyph-name="hyphen" unicode="&#xad;" horiz-adv-x="437" 
d="M377 292v63h-317v-63h317z" />
    <glyph glyph-name="period" unicode="." horiz-adv-x="320" 
d="M220 0v63h-120v-63h120z" />
    <glyph glyph-name="slash" unicode="/" horiz-adv-x="505" 
d="M507 724h-79l-430 -734h80z" />
    <glyph glyph-name="zero" unicode="0" horiz-adv-x="885" 
d="M796 362q0 93 -40 173t-114 134q-45 32 -95.5 48.5t-104.5 16.5t-104.5 -16.5t-95.5 -48.5q-73 -54 -113 -133.5t-40 -173.5t40 -174t113 -134q45 -32 95.5 -49t104.5 -17q55 0 104.5 17t94.5 49q74 54 114.5 134t40.5 174zM730 362q0 -78 -32 -144.5t-92 -112.5
q-35 -27 -77 -41.5t-87 -14.5q-92 0 -163 56q-60 46 -92 112.5t-32 144.5q0 77 32 143.5t92 111.5q73 55 163 55t163 -55q60 -45 92.5 -111t32.5 -144z" />
    <glyph glyph-name="one" unicode="1" horiz-adv-x="342" 
d="M221 0v724h-65q-28 -20 -57 -36t-59 -28v-50l116 53v-663h65z" />
    <glyph glyph-name="two" unicode="2" horiz-adv-x="784" 
d="M721 0v63h-607q20 69 61 114.5t108 77.5q51 24 107.5 40.5t116.5 34.5q100 31 147 76t47 122q0 45 -21.5 82.5t-61.5 65t-96 43t-126 15.5q-85 0 -161.5 -28t-152.5 -85l39 -48q66 51 132.5 75.5t141.5 24.5q111 0 172.5 -40.5t61.5 -105.5q0 -68 -68 -107
q-45 -26 -100.5 -41t-115.5 -36q-38 -14 -72.5 -28t-64.5 -31.5t-56 -39.5t-48 -52q-55 -76 -63 -192h680z" />
    <glyph glyph-name="three" unicode="3" horiz-adv-x="802" 
d="M544 377q147 43 147 166q0 88 -78.5 139.5t-223.5 51.5q-78 0 -153 -24.5t-152 -73.5l38 -48q65 44 131 64.5t139 20.5q108 0 165.5 -35.5t57.5 -98.5q0 -72 -66 -105.5t-201 -33.5h-29t-30 1v-57h37q163 0 242.5 -32.5t79.5 -103.5q0 -157 -285 -157q-96 0 -166 27
t-126 91l-40 -51q32 -36 68 -61t76.5 -40t87.5 -22t101 -7q177 0 267.5 54.5t90.5 157.5q0 69 -45 115t-133 62z" />
    <glyph glyph-name="four" unicode="4" horiz-adv-x="781" 
d="M751 152v63h-167v509h-65l-489 -508v-64h489v-152h65v152h167zM519 215h-426l426 434v-434z" />
    <glyph glyph-name="five" unicode="5" horiz-adv-x="799" 
d="M118 388l80 273h471v63h-515l-105 -355l67 -55q65 43 130 64t137 21q62 0 111.5 -13t84 -36.5t53 -55.5t18.5 -71q0 -37 -17.5 -68.5t-51 -55t-82 -36.5t-109.5 -13q-78 0 -147 23.5t-138 71.5l-61 -33q123 -124 357 -124q75 0 134.5 17t101 48t63.5 74t22 95
q0 50 -24 93.5t-67.5 75.5t-105 50.5t-137.5 18.5q-75 0 -140.5 -17.5t-129.5 -54.5z" />
    <glyph glyph-name="six" unicode="6" horiz-adv-x="872" 
d="M157 284q-7 34 -7 69q0 73 21.5 132.5t61.5 101t95.5 64t123.5 22.5q80 0 140.5 -22.5t99.5 -65.5l49 41q-53 53 -122 80.5t-150 27.5q-100 0 -184.5 -42t-139.5 -120q-66 -92 -66 -213q0 -78 28.5 -147t81.5 -120q52 -51 122.5 -77.5t155.5 -26.5q75 0 134 16.5
t100.5 46.5t63 71.5t21.5 90.5q0 85 -68 141q-47 39 -110.5 61t-138.5 22q-94 0 -174.5 -39t-137.5 -114zM180 213q45 77 121.5 119.5t165.5 42.5q56 0 101 -12t76.5 -33.5t48.5 -51t17 -64.5q0 -75 -62.5 -119t-176.5 -44q-206 0 -291 162z" />
    <glyph glyph-name="seven" unicode="7" horiz-adv-x="729" 
d="M695 661v63h-671v-63h594l-462 -661h80z" />
    <glyph glyph-name="eight" unicode="8" horiz-adv-x="846" 
d="M552 374q86 19 129.5 61.5t43.5 105.5q0 43 -20.5 79t-59.5 61t-96 39t-130 14q-146 0 -225.5 -52.5t-79.5 -140.5q0 -63 44.5 -107.5t129.5 -59.5q-112 -18 -168 -66.5t-56 -121.5q0 -93 90.5 -145.5t265.5 -52.5t265.5 53t90.5 146q0 73 -56 120.5t-168 66.5zM658 541
q0 -66 -61 -103.5t-177 -37.5q-115 0 -176 38t-61 103q0 63 60 97.5t176 34.5q118 0 178.5 -34.5t60.5 -97.5zM698 192q0 -66 -70.5 -104t-208.5 -38q-137 0 -210 39.5t-73 105.5q0 68 71.5 106.5t211.5 38.5q138 0 208.5 -38.5t70.5 -109.5z" />
    <glyph glyph-name="nine" unicode="9" horiz-adv-x="869" 
d="M700 444q6 -23 8.5 -43.5t2.5 -41.5q0 -78 -35 -145t-98 -110q-39 -27 -85.5 -40.5t-97.5 -13.5q-70 0 -132 24.5t-110 70.5l-40 -45q55 -55 126 -83.5t155 -28.5q53 0 103.5 13.5t95 38t81 59.5t61.5 78q49 84 49 187q0 81 -28 149t-79.5 116.5t-124.5 76t-163 27.5
q-74 0 -133 -17t-100 -47.5t-63 -73t-22 -92.5q0 -49 23.5 -89t64.5 -68.5t97 -44t121 -15.5q96 0 181 41t142 117zM678 514q-48 -81 -127 -124.5t-176 -43.5q-53 0 -96.5 12t-74 33t-47 51t-16.5 66q0 78 61.5 121.5t178.5 43.5q52 0 94.5 -8t77.5 -27t65.5 -49t59.5 -75z
" />
    <glyph glyph-name="colon" unicode=":" horiz-adv-x="320" 
d="M220 410v63h-120v-63h120zM220 0v63h-120v-63h120z" />
    <glyph glyph-name="semicolon" unicode=";" horiz-adv-x="320" 
d="M220 410v63h-120v-63h120zM220 -30v93h-120v-63h69v-31q0 -46 -62 -51v-30h16q51 0 74 19t23 63z" />
    <glyph glyph-name="less" unicode="&#x3c;" horiz-adv-x="685" 
d="M627 0v63h-509q15 48 41.5 81.5t68.5 59.5q33 20 75 33t90 27q57 16 102 31.5t77 48.5q38 40 38 99q0 40 -18.5 73.5t-52.5 57t-83 36.5t-110 13q-75 0 -141.5 -24t-132.5 -74l40 -46q55 44 112.5 64t124.5 20q89 0 138.5 -32.5t49.5 -84.5q0 -31 -15 -51.5t-43.5 -36
t-70.5 -29t-96 -29.5q-67 -20 -116.5 -47t-83 -63t-51.5 -83t-22 -107h588z" />
    <glyph glyph-name="equal" unicode="=" horiz-adv-x="682" 
d="M463 322q115 40 115 142q0 72 -68.5 116t-193.5 44q-68 0 -133 -21.5t-133 -64.5l36 -46q57 36 113.5 53.5t119.5 17.5q90 0 137 -28.5t47 -79.5q0 -57 -54.5 -83t-166.5 -26h-28q-13 0 -28 1v-55h22q283 0 283 -113q0 -126 -237 -126q-76 0 -136.5 22.5t-114.5 73.5
l-38 -46q104 -113 290 -113q152 0 230.5 47t78.5 130q0 59 -36 98.5t-105 56.5z" />
    <glyph glyph-name="greater" unicode="&#x3e;" horiz-adv-x="664" 
d="M642 127v63h-142v425h-62l-419 -427v-61h416v-127h65v127h142zM435 190h-346l346 346v-346z" />
    <glyph glyph-name="question" unicode="?" horiz-adv-x="684" 
d="M39 611l52 -38q54 51 113.5 75t132.5 24q108 0 165.5 -37t57.5 -101q0 -30 -11.5 -49.5t-36.5 -35.5q-18 -11 -45 -18.5t-60 -18.5q-41 -14 -70.5 -33.5t-48.5 -46.5t-28.5 -63.5t-10.5 -84.5l-1 -40h67v23q0 54 10.5 91t33.5 57q18 16 42 24t52 17q44 14 78 28.5t57 34
t34.5 46t11.5 65.5q0 47 -19.5 85t-56.5 64.5t-91 41t-123 14.5q-196 0 -305 -124zM348 0v63h-120v-63h120z" />
    <glyph glyph-name="at" unicode="@" horiz-adv-x="814" 
d="M395 -9h28v52q-280 1 -280 277q0 64 19.5 117t55.5 90.5t86.5 58t111.5 20.5q57 0 104.5 -18t81.5 -50t52.5 -76.5t18.5 -98.5q0 -88 -35 -136.5t-94 -48.5q-48 0 -48 57q0 26 17 90t49 167h-64l-8 -18q-29 18 -60 18q-40 0 -74.5 -16.5t-60 -45t-40 -67t-14.5 -83.5
q0 -57 29.5 -90t78.5 -33q53 0 98 35q13 -30 33 -42.5t53 -12.5q54 0 100 26.5t75 74.5q35 58 35 128q0 128 -101 212q-45 38 -103 59t-123 21q-85 0 -160 -39.5t-125 -110.5q-29 -42 -44.5 -90t-15.5 -98q0 -74 23.5 -134.5t66 -104t102 -67t132.5 -23.5zM469 383
q0 -39 -9.5 -72t-25.5 -57.5t-36.5 -38t-42.5 -13.5q-51 0 -51 64q0 42 10 76.5t25.5 60t35.5 39.5t41 14q53 0 53 -73z" />
    <glyph glyph-name="B" unicode="B" horiz-adv-x="1006" 
d="M774 371q65 24 95.5 64.5t30.5 103.5q0 85 -55 135t-156 50h-563v-724h568q53 0 95.5 13.5t72 38.5t45 60t15.5 79q0 69 -36.5 112.5t-111.5 67.5zM685 399h-494v262h509q60 0 95 -34.5t35 -89.5q0 -30 -11 -55.5t-30 -43.5t-46 -28.5t-58 -10.5zM693 63h-502v273h504
q74 0 116.5 -38t42.5 -103t-41 -98.5t-120 -33.5z" />
    <glyph glyph-name="C" unicode="C" horiz-adv-x="973" 
d="M894 586q-60 78 -155.5 119.5t-219.5 41.5q-89 0 -166 -25.5t-135 -73.5q-134 -110 -134 -284q0 -109 50.5 -193t145.5 -134q108 -57 248 -57q125 0 216.5 38t145.5 109l-54 35q-54 -63 -132 -91.5t-185 -28.5q-82 0 -149.5 23.5t-115.5 66t-74.5 101.5t-26.5 131
q0 149 117 242q48 38 112.5 59t136.5 21q101 0 178.5 -29.5t138.5 -93.5z" />
    <glyph glyph-name="D" unicode="D" horiz-adv-x="1024" 
d="M557 724h-431v-724h455q75 0 140.5 25.5t115.5 74.5q51 50 77 114.5t26 139.5q0 85 -26.5 153.5t-76 116.5t-120.5 74t-160 26zM586 63h-395v598h376q67 0 122 -22t94 -62t60.5 -96t21.5 -124q0 -60 -20 -113t-57 -94q-81 -87 -202 -87z" />
    <glyph glyph-name="E" unicode="E" horiz-adv-x="871" 
d="M829 0v63h-638v289h424v63h-424v246h610v63h-675v-724h703z" />
    <glyph glyph-name="F" unicode="F" horiz-adv-x="816" 
d="M801 661v63h-675v-724h65v352h424v63h-424v246h610z" />
    <glyph glyph-name="G" unicode="G" horiz-adv-x="1038" 
d="M954 360h-463v-63h384q-32 -125 -122.5 -190.5t-232.5 -65.5q-83 0 -150.5 23.5t-115.5 66t-74 101.5t-26 131q0 144 112 238q49 41 114 63t140 22q93 0 165 -30t139 -99l60 38q-70 78 -159 115t-205 37q-89 0 -167 -27t-136 -75q-133 -110 -133 -282q0 -175 132 -284
q57 -48 135 -74t169 -26q116 0 208 40.5t152 115.5q34 43 51.5 98t22.5 127z" />
    <glyph glyph-name="H" unicode="H" horiz-adv-x="1016" 
d="M890 0v724h-65v-309h-634v309h-65v-724h65v352h634v-352h65z" />
    <glyph glyph-name="I" unicode="I" horiz-adv-x="317" 
d="M191 0v724h-65v-724h65z" />
    <glyph glyph-name="J" unicode="J" horiz-adv-x="734" 
d="M619 225v499h-65v-500q0 -51 -14 -85.5t-43.5 -56.5t-75 -31.5t-108.5 -9.5q-112 0 -164 40.5t-53 133.5h-61q0 -115 71.5 -175.5t211.5 -60.5q150 0 225.5 62t75.5 184z" />
    <glyph glyph-name="K" unicode="K" horiz-adv-x="881" 
d="M874 0l-386 458l341 266h-95l-543 -426v426h-65v-724h65v224l248 195l357 -419h78z" />
    <glyph glyph-name="L" unicode="L" horiz-adv-x="755" 
d="M750 0v63h-559v661h-65v-724h624z" />
    <glyph glyph-name="M" unicode="M" horiz-adv-x="1192" 
d="M1066 0v724h-100l-370 -483l-369 483h-101v-724h65v661h3l402 -516l401 516h4v-661h65z" />
    <glyph glyph-name="N" unicode="N" horiz-adv-x="1020" 
d="M894 0v724h-65v-661l-609 661h-94v-724h65v661l611 -661h92z" />
    <glyph glyph-name="O" unicode="O" horiz-adv-x="1041" 
d="M957 363q0 173 -135 284q-58 48 -135.5 74t-165.5 26q-89 0 -166.5 -26t-135.5 -74q-135 -111 -135 -284q0 -175 134 -285q57 -47 134.5 -73t168.5 -26t168 26t134 73q134 110 134 285zM888 363q0 -72 -26.5 -131.5t-74.5 -101.5t-115.5 -65.5t-150.5 -23.5t-150.5 23
t-115.5 65.5t-74 102t-26 131.5q0 149 117 242q48 38 112.5 59.5t136.5 21.5t136.5 -21.5t112.5 -59.5q118 -94 118 -242z" />
    <glyph glyph-name="P" unicode="P" horiz-adv-x="913" 
d="M672 724h-546v-724h65v297h464q55 0 98.5 15t74 42.5t46.5 66.5t16 87q0 50 -15 90t-43.5 68t-69 43t-90.5 15zM667 360h-476v301h452q175 0 175 -150q0 -72 -39.5 -111.5t-111.5 -39.5z" />
    <glyph glyph-name="Q" unicode="Q" horiz-adv-x="1051" 
d="M674 1l91 -106l63 19l-97 107q114 51 172.5 138.5t58.5 204.5q0 172 -134 283q-58 48 -135.5 74.5t-166.5 26.5q-90 0 -167.5 -26.5t-135.5 -74.5q-134 -110 -134 -283q0 -175 133 -284q57 -48 135 -74t169 -26q73 0 148 21zM686 70l-93 108l-59 -18l93 -107
q-25 -5 -50 -7.5t-51 -2.5q-83 0 -150.5 23.5t-115.5 65.5t-74 101t-26 131q0 146 112 238q49 41 114 63t140 22t140.5 -22.5t114.5 -62.5q56 -46 84 -106t28 -132q0 -104 -52 -178.5t-155 -115.5z" />
    <glyph glyph-name="R" unicode="R" horiz-adv-x="978" 
d="M892 0l-220 297q106 8 162 62.5t56 148.5q0 49 -15 89t-43.5 68.5t-69 43.5t-90.5 15h-546v-724h65v297h395l227 -297h79zM667 360h-476v301h452q175 0 175 -150q0 -72 -39.5 -111.5t-111.5 -39.5z" />
    <glyph glyph-name="S" unicode="S" horiz-adv-x="931" 
d="M751 609l46 50q-64 43 -151 63t-200 20q-171 0 -260.5 -55.5t-89.5 -153.5q0 -54 26 -89.5t80 -55.5q50 -19 119 -24.5t160 -9.5q74 -3 129.5 -11.5t92 -24.5t54.5 -41.5t18 -64.5q0 -78 -79.5 -123t-231.5 -45q-96 0 -180.5 24.5t-165.5 76.5l-38 -55q76 -53 175.5 -80
t222.5 -27q183 0 278 61.5t95 171.5q0 115 -106 161q-54 23 -128 29t-169 10q-69 3 -120.5 10t-86 21t-52 36.5t-17.5 57.5q0 66 70.5 103t207.5 37q84 0 157.5 -17t143.5 -55z" />
    <glyph glyph-name="T" unicode="T" horiz-adv-x="767" 
d="M762 661v63h-757v-63h346v-661h65v661h346z" />
    <glyph glyph-name="U" unicode="U" horiz-adv-x="1016" 
d="M890 226v498h-65v-473q0 -209 -316 -209q-318 0 -318 209v473h-65v-498q0 -54 26.5 -99t76.5 -78t120.5 -51.5t159.5 -18.5q88 0 159 18.5t120 51t75.5 78t26.5 99.5z" />
    <glyph glyph-name="V" unicode="V" horiz-adv-x="831" 
d="M826 724h-76l-334 -671l-335 671h-76l361 -724h99z" />
    <glyph glyph-name="W" unicode="W" horiz-adv-x="1086" 
d="M1068 724h-74l-206 -667l-199 667h-101l-190 -668l-206 668h-74l232 -724h100l188 667l198 -667h99z" />
    <glyph glyph-name="X" unicode="X" horiz-adv-x="823" 
d="M798 0l-344 367l331 357h-85l-289 -311l-287 311h-86l332 -357l-345 -367h86l300 323l302 -323h85z" />
    <glyph glyph-name="Y" unicode="Y" horiz-adv-x="793" 
d="M788 724h-79l-313 -368l-312 368h-79l360 -433v-291h65v291z" />
    <glyph glyph-name="Z" unicode="Z" horiz-adv-x="793" 
d="M758 0v63h-647l620 598v63h-696v-63h598l-606 -598v-63h731z" />
    <glyph glyph-name="bracketleft" unicode="[" horiz-adv-x="372" 
d="M328 -141v34h-163v866h163v34h-228v-934h228z" />
    <glyph glyph-name="backslash" unicode="\" horiz-adv-x="505" 
d="M507 -10l-430 734h-79l429 -734h80z" />
    <glyph glyph-name="bracketright" unicode="]" horiz-adv-x="377" 
d="M272 -141v934h-227v-34h163v-866h-163v-34h227z" />
    <glyph glyph-name="asciicircum" unicode="^" horiz-adv-x="690" 
d="M107 329l71 223h405v63h-446l-92 -303l57 -48q57 37 113.5 55t119.5 18q51 0 92 -11t70.5 -30.5t45 -46t15.5 -57.5q0 -30 -15 -55.5t-42.5 -44.5t-67.5 -29.5t-91 -10.5q-66 0 -127 20t-122 62l-54 -34q110 -110 311 -110q65 0 116.5 14.5t87.5 41t55 63t19 81.5
q0 43 -20 80.5t-57.5 64.5t-90.5 42.5t-118 15.5q-68 0 -127.5 -16.5t-107.5 -47.5z" />
    <glyph glyph-name="underscore" unicode="_" 
d="M500 -187h-500v-49h500v49z" />
    <glyph glyph-name="grave" unicode="`" 
d="M282 668l-58 139h-79l104 -139h33z" />
    <glyph glyph-name="a" unicode="a" horiz-adv-x="758" 
d="M753 0l-330 615h-87l-331 -615h75l86 157h427l84 -157h76zM560 220h-361l180 333h2z" />
    <glyph glyph-name="b" unicode="b" horiz-adv-x="882" 
d="M688 316q48 24 70 57.5t22 81.5q0 73 -48 116.5t-136 43.5h-484v-615h488q46 0 83 11.5t62.5 33.5t39.5 52t14 68q0 53 -27 89.5t-84 61.5zM592 343h-415v209h428q49 0 77.5 -27.5t28.5 -70.5q0 -24 -9 -44t-25 -35t-38 -23.5t-47 -8.5zM599 63h-422v217h424
q61 0 95.5 -30.5t34.5 -81.5t-33.5 -78t-98.5 -27z" />
    <glyph glyph-name="c" unicode="c" horiz-adv-x="837" 
d="M772 493q-54 69 -137.5 105.5t-189.5 36.5q-77 0 -143.5 -22.5t-116.5 -62.5q-115 -93 -115 -240q0 -149 114 -242q49 -40 116 -62t145 -22q112 0 191.5 31.5t131.5 97.5l-55 34q-47 -53 -112.5 -77.5t-155.5 -24.5q-68 0 -124.5 20t-97 54.5t-62.5 81.5t-22 102
q0 59 22 108.5t62.5 85.5t96.5 56.5t125 20.5q175 0 268 -104z" />
    <glyph glyph-name="d" unicode="d" horiz-adv-x="889" 
d="M483 615h-371v-615h392q66 0 122 21.5t99 63.5q44 42 66.5 97.5t22.5 118.5q0 72 -23 130.5t-65.5 99t-104 62.5t-138.5 22zM508 63h-331v489h315q56 0 101.5 -18t78 -50.5t50.5 -78t18 -101.5q0 -37 -9.5 -72t-29.5 -66q-29 -47 -81 -75t-112 -28z" />
    <glyph glyph-name="e" unicode="e" horiz-adv-x="760" 
d="M720 0v63h-543v231h361v63h-361v195h519v63h-584v-615h608z" />
    <glyph glyph-name="f" unicode="f" horiz-adv-x="711" 
d="M696 552v63h-584v-615h65v294h361v63h-361v195h519z" />
    <glyph glyph-name="g" unicode="g" horiz-adv-x="890" 
d="M820 312h-404v-63h325q-27 -99 -102.5 -151.5t-192.5 -52.5q-69 0 -125 19.5t-96.5 54t-62.5 81.5t-22 102q0 59 22.5 109t63 86t96.5 56.5t124 20.5q83 0 144.5 -28t112.5 -81l60 37q-64 70 -140.5 102t-176.5 32q-76 0 -143 -22.5t-117 -63.5q-116 -93 -116 -241
t115 -242q50 -40 116.5 -62.5t144.5 -22.5q82 0 150 23t117 66t76.5 104t30.5 137z" />
    <glyph glyph-name="h" unicode="h" horiz-adv-x="884" 
d="M772 0v615h-65v-258h-530v258h-65v-615h65v294h530v-294h65z" />
    <glyph glyph-name="i" unicode="i" horiz-adv-x="290" 
d="M177 0v615h-65v-615h65z" />
    <glyph glyph-name="j" unicode="j" horiz-adv-x="625" 
d="M527 199v416h-65v-417q0 -83 -48 -116.5t-153 -33.5q-93 0 -135.5 34.5t-43.5 112.5h-62q0 -102 62 -154.5t183 -52.5q131 0 196.5 53.5t65.5 157.5z" />
    <glyph glyph-name="k" unicode="k" horiz-adv-x="773" 
d="M764 0l-332 387l297 228h-97l-455 -351v351h-65v-615h65v190l205 159l302 -349h80z" />
    <glyph glyph-name="l" unicode="l" horiz-adv-x="658" 
d="M653 0v63h-476v552h-65v-615h541z" />
    <glyph glyph-name="m" unicode="m" horiz-adv-x="1033" 
d="M921 0v615h-92l-312 -400l-314 400h-91v-615h65v553h2l338 -435l337 430h2v-548h65z" />
    <glyph glyph-name="n" unicode="n" horiz-adv-x="887" 
d="M775 0v615h-65v-553l-516 553h-82v-615h65v553l516 -553h82z" />
    <glyph glyph-name="o" unicode="o" horiz-adv-x="893" 
d="M823 309q0 147 -117 241q-50 41 -117 63.5t-143 22.5t-143 -22.5t-117 -63.5q-116 -93 -116 -241t115 -242q50 -40 116.5 -62.5t144.5 -22.5t145 22t117 62q115 94 115 243zM753 303q0 -56 -22 -103t-62 -81.5t-97 -54t-126 -19.5t-125.5 19.5t-96.5 53.5t-62 81t-22 102
q0 59 22 109t62.5 86.5t97 57t124.5 20.5t124.5 -20.5t97 -56.5t63 -86t22.5 -108z" />
    <glyph glyph-name="p" unicode="p" horiz-adv-x="791" 
d="M581 615h-469v-615h65v248h390q96 0 150.5 49.5t54.5 132.5q0 85 -51.5 135t-139.5 50zM577 311h-400v241h380q143 0 143 -120q0 -58 -32 -89.5t-91 -31.5z" />
    <glyph glyph-name="q" unicode="q" horiz-adv-x="903" 
d="M574 -1l77 -84l61 19l-78 86q96 45 145 118.5t49 170.5q0 147 -116 242q-51 41 -118 63.5t-143 22.5t-143 -22.5t-117 -63.5q-57 -47 -86.5 -108t-29.5 -134q0 -148 115 -242q49 -40 116 -62t145 -22q65 0 123 16zM590 69l-80 90l-60 -17l80 -89q-19 -5 -38.5 -6.5
t-40.5 -1.5q-69 0 -125.5 19.5t-96.5 53.5t-62 81t-22 103q0 59 22 109t62.5 86.5t97 57t124.5 20.5q72 0 125 -21.5t87 -47.5q54 -47 74.5 -93.5t20.5 -109.5q0 -79 -43 -140.5t-125 -93.5z" />
    <glyph glyph-name="r" unicode="r" horiz-adv-x="850" 
d="M778 0l-186 249q88 9 134 56.5t46 124.5q0 85 -51.5 135t-139.5 50h-469v-615h65v248h328l194 -248h79zM577 311h-400v241h380q143 0 143 -120q0 -58 -32 -89.5t-91 -31.5z" />
    <glyph glyph-name="s" unicode="s" horiz-adv-x="802" 
d="M649 510l38 49q-119 73 -302 73q-147 0 -224.5 -47.5t-77.5 -132.5q0 -47 20.5 -76t61 -45.5t102 -23.5t144.5 -10q63 -3 109.5 -9t77.5 -19t46.5 -34.5t15.5 -55.5q0 -60 -63.5 -96t-182.5 -36q-88 0 -163 20.5t-147 65.5l-37 -53q133 -94 346 -94q158 0 240 52.5
t82 146.5q0 51 -20 83t-60.5 51t-102.5 28t-145 12q-63 2 -110 7.5t-78 17t-46 31t-15 49.5q0 52 57 79.5t169 27.5q74 0 138.5 -14.5t126.5 -46.5z" />
    <glyph glyph-name="t" unicode="t" horiz-adv-x="663" 
d="M658 552v63h-653v-63h294v-552h65v552h294z" />
    <glyph glyph-name="u" unicode="u" horiz-adv-x="869" 
d="M764 201v414h-65v-393q0 -170 -263 -170q-266 0 -266 170v393h-65v-414q0 -46 23 -84.5t66 -66.5t104 -44t138 -16q76 0 137 15.5t103.5 43.5t65 67t22.5 85z" />
    <glyph glyph-name="v" unicode="v" horiz-adv-x="724" 
d="M719 615h-74l-283 -557l-283 557h-74l312 -615h90z" />
    <glyph glyph-name="w" unicode="w" horiz-adv-x="946" 
d="M926 615h-73l-171 -556l-167 556h-92l-158 -557l-171 557h-74l201 -615h92l156 556l165 -556h91z" />
    <glyph glyph-name="x" unicode="x" horiz-adv-x="690" 
d="M685 0l-297 312l286 303h-86l-243 -257l-242 257h-87l287 -303l-298 -312h87l253 268l254 -268h86z" />
    <glyph glyph-name="y" unicode="y" horiz-adv-x="697" 
d="M692 615h-81l-263 -305l-263 305h-80l312 -368v-247h65v247z" />
    <glyph glyph-name="z" unicode="z" horiz-adv-x="662" 
d="M647 0v63h-543l520 489v63h-602v-63h501l-508 -489v-63h632z" />
    <glyph glyph-name="braceleft" unicode="{" horiz-adv-x="380" 
d="M305 -141v34h-3q-57 0 -83 27t-26 85v127q0 82 -11.5 128.5t-52.5 64.5v3q41 18 52.5 64.5t11.5 128.5v121q0 60 27 88.5t85 28.5v34h-8q-87 0 -128 -33.5t-41 -106.5v-194q0 -48 -18.5 -80t-59.5 -53q41 -21 59.5 -53t18.5 -79v-202q0 -74 41 -103.5t132 -29.5h4z" />
    <glyph glyph-name="bar" unicode="|" horiz-adv-x="756" 
d="M146 252q-6 27 -6 56q0 57 19 104t54 80.5t85 52t112 18.5q57 0 102.5 -18t87.5 -58l50 41q-56 49 -112.5 72.5t-120.5 23.5q-89 0 -163 -35.5t-122 -101.5q-57 -78 -57 -184q0 -69 23.5 -127t67.5 -99t105.5 -64t138.5 -23q62 0 112 15t85.5 41.5t54.5 63t19 80.5
q0 38 -19.5 71.5t-55 58t-85.5 38.5t-110 14q-81 0 -148.5 -30.5t-116.5 -89.5zM166 183q42 63 106.5 98t137.5 35q46 0 82.5 -10t62.5 -27.5t40 -42t14 -52.5q0 -60 -51 -96t-145 -36q-88 0 -146.5 29.5t-100.5 101.5z" />
    <glyph glyph-name="braceright" unicode="}" horiz-adv-x="372" 
d="M324 326q-41 21 -59.5 53t-18.5 80v194q0 72 -41 106t-128 34h-8v-34q57 0 84.5 -28.5t27.5 -88.5v-121q0 -81 11 -127.5t53 -65.5v-3q-42 -19 -53 -65.5t-11 -127.5v-127q0 -58 -26 -85t-83 -27h-3v-34h4q91 0 132 30t41 103v202q0 48 18.5 79.5t59.5 52.5z" />
    <glyph glyph-name="asciitilde" unicode="~" horiz-adv-x="652" 
d="M608 552v63h-580v-63h500l-392 -552h80z" />
    <glyph glyph-name="Euro" horiz-adv-x="762" 
d="M736 712q-42 14 -91 20t-94 6q-82 0 -151 -20t-122 -56t-89.5 -87.5t-52.5 -114.5h-104l-14 -50h109q-6 -47 0 -94h-95l-14 -50h117q16 -64 51.5 -115.5t88.5 -87.5t122 -55.5t152 -19.5q41 0 90.5 5t87.5 18l-8 67q-38 -15 -83.5 -21.5t-86.5 -6.5q-64 0 -117 15.5
t-93.5 44t-68 68.5t-41.5 88h392l13 50h-417q-6 47 0 94h441l14 50h-443q14 48 42 88t68.5 68.5t93.5 44.5t117 16q18 0 40.5 -2t46 -5.5t45 -9.5t37.5 -13z" />
    <glyph glyph-name="Euro" unicode="&#x20ac;" horiz-adv-x="762" 
d="M736 712q-42 14 -91 20t-94 6q-82 0 -151 -20t-122 -56t-89.5 -87.5t-52.5 -114.5h-104l-14 -50h109q-6 -47 0 -94h-95l-14 -50h117q16 -64 51.5 -115.5t88.5 -87.5t122 -55.5t152 -19.5q41 0 90.5 5t87.5 18l-8 67q-38 -15 -83.5 -21.5t-86.5 -6.5q-64 0 -117 15.5
t-93.5 44t-68 68.5t-41.5 88h392l13 50h-417q-6 47 0 94h441l14 50h-443q14 48 42 88t68.5 68.5t93.5 44.5t117 16q18 0 40.5 -2t46 -5.5t45 -9.5t37.5 -13z" />
    <glyph glyph-name="quotesinglbase" unicode="&#x201a;" horiz-adv-x="275" 
d="M194 -30v93h-120v-63h69v-31q0 -46 -62 -51v-30h16q51 0 74 19t23 63z" />
    <glyph glyph-name="florin" unicode="&#x192;" horiz-adv-x="539" 
d="M493 721q-41 16 -79 16q-90 0 -129 -81q-14 -29 -24.5 -92.5t-27.5 -161.5h-102v-48h94l-69 -369q-10 -56 -75 -56q-13 0 -24 2t-22 7l-12 -45q39 -12 66 -12q52 0 89 31t46 80l67 362h124v48h-115l35 205q6 38 29.5 57.5t61.5 19.5q23 0 49 -10z" />
    <glyph glyph-name="quotedblbase" unicode="&#x201e;" horiz-adv-x="442" 
d="M370 -30v93h-120v-63h69v-31q0 -46 -62 -51v-30h16q51 0 74 19t23 63zM193 -30v93h-120v-63h69v-31q0 -46 -62 -51v-30h16q51 0 74 19t23 63z" />
    <glyph glyph-name="ellipsis" unicode="&#x2026;" horiz-adv-x="742" 
d="M590 365q7 -28 7 -60q0 -78 -41 -140.5t-112 -91.5q-51 -22 -109 -22q-116 0 -200 78l-48 -40q42 -49 105.5 -74.5t147.5 -25.5q67 0 125.5 22.5t103.5 64.5q47 44 71 101t24 123q0 74 -23.5 133.5t-67 101.5t-105.5 65t-139 23q-64 0 -115 -14.5t-87 -41t-55 -62.5
t-19 -79q0 -41 19 -75.5t53 -59.5t81.5 -39.5t104.5 -14.5q81 0 153.5 33t125.5 95zM569 435q-41 -66 -106 -101t-146 -35q-45 0 -80.5 10t-61 27t-39 41t-13.5 53q0 63 51 97.5t148 34.5q43 0 79 -7t66 -22t55 -39t47 -59z" />
    <glyph glyph-name="dagger" unicode="&#x2020;" horiz-adv-x="506" 
d="M442 504v63h-167l12 226h-75l13 -226h-166v-63h169l-18 -576h80l-18 576h170z" />
    <glyph glyph-name="daggerdbl" unicode="&#x2021;" horiz-adv-x="508" 
d="M442 153v63h-161l-9 288h170v63h-167l12 226h-75l13 -226h-166v-63h169l-9 -288h-160v-63h158l-7 -225h80l-7 225h159z" />
    <glyph glyph-name="circumflex" unicode="&#x2c6;" 
d="M411 669l-123 139h-76l-128 -139h66l98 105l97 -105h66z" />
    <glyph glyph-name="perthousand" unicode="&#x2030;" horiz-adv-x="1446" 
d="M1367 182q0 81 -53 137q-57 60 -134 60q-76 0 -133 -60q-52 -55 -52 -137t52 -136q56 -59 133 -59q76 0 133 59q54 56 54 136zM941 182q0 81 -54 137q-57 60 -133 60t-133 -60q-52 -55 -52 -137t52 -136q56 -59 133 -59q76 0 133 59q26 27 40 62t14 74zM846 724h-79
l-614 -734h80zM431 542q0 82 -53 137q-57 60 -134 60q-76 0 -133 -60q-52 -55 -52 -137q0 -40 13 -75.5t39 -61.5q27 -29 61 -43.5t72 -14.5q77 0 133 58q26 27 40 62.5t14 74.5zM1311 182q0 -30 -10.5 -57t-28.5 -46.5t-41.5 -31t-50.5 -11.5t-50.5 11.5t-41 31t-28 46
t-10.5 57.5t10.5 57.5t28.5 46.5t41.5 31.5t49.5 11.5t50 -11.5t42 -31.5t28.5 -46.5t10.5 -57.5zM885 182q0 -30 -10.5 -57t-28.5 -46.5t-41.5 -31t-50.5 -11.5t-50.5 11.5t-41 31t-28 46t-10.5 57.5t10.5 57.5t28.5 46.5t41.5 31.5t49.5 11.5t50 -11.5t42 -31.5
t28.5 -46.5t10.5 -57.5zM375 542q0 -30 -10.5 -57t-28.5 -46.5t-41.5 -31t-50.5 -11.5t-50.5 11.5t-41 31t-28 46t-10.5 57.5t10.5 57.5t28.5 46.5t41.5 31.5t49.5 11.5t50 -11.5t42 -31.5t28.5 -46.5t10.5 -57.5z" />
    <glyph glyph-name="Scaron" unicode="&#x160;" horiz-adv-x="931" 
d="M750 609l46 50q-64 43 -151 63t-200 20q-171 0 -260.5 -55.5t-89.5 -153.5q0 -54 26 -89.5t80 -55.5q50 -19 119 -24.5t160 -9.5q74 -3 129.5 -11.5t92 -24.5t54.5 -41.5t18 -64.5q0 -78 -79.5 -123t-231.5 -45q-96 0 -180.5 24.5t-165.5 76.5l-38 -55q76 -53 175.5 -80
t222.5 -27q183 0 278 61.5t95 171.5q0 115 -106 161q-54 23 -128 29t-169 10q-69 3 -120.5 10t-86 21t-52 36.5t-17.5 57.5q0 66 70.5 103t207.5 37q84 0 157.5 -17t143.5 -55zM623 918h-66l-97 -105l-98 105h-66l128 -139h76z" />
    <glyph glyph-name="guilsinglleft" unicode="&#x2039;" horiz-adv-x="329" 
d="M268 484h-74l-145 -163l141 -162h76l-136 162z" />
    <glyph glyph-name="OE" unicode="&#x152;" horiz-adv-x="1461" 
d="M1419 0v63h-638v289h424v63h-424v246h610v63h-883q-88 0 -162.5 -24t-130.5 -69q-131 -104 -131 -270q0 -169 131 -271q55 -43 130.5 -66.5t165.5 -23.5h908zM716 122q0 -32 -31.5 -45.5t-95.5 -13.5h-81q-83 0 -148.5 21t-111 60t-70 94t-24.5 123q0 66 25.5 121t72 95
t111.5 62t145 22h69q71 0 105 -19t34 -64v-456z" />
    <glyph glyph-name="Zcaron" horiz-adv-x="793" 
d="M757 0v63h-647l620 598v63h-696v-63h598l-606 -598v-63h731zM547 918h-66l-97 -105l-98 105h-66l128 -139h76z" />
    <glyph glyph-name="Zcaron" unicode="&#x17d;" horiz-adv-x="793" 
d="M757 0v63h-647l620 598v63h-696v-63h598l-606 -598v-63h731zM547 918h-66l-97 -105l-98 105h-66l128 -139h76z" />
    <glyph glyph-name="quoteleft" unicode="&#x2018;" horiz-adv-x="230" 
d="M175 549v63h-69v31q0 46 62 51v30h-16q-51 0 -74 -19t-23 -63v-93h120z" />
    <glyph glyph-name="quoteright" unicode="&#x2019;" horiz-adv-x="230" 
d="M175 631v93h-120v-63h69v-31q0 -46 -62 -51v-30h16q51 0 74 19t23 63z" />
    <glyph glyph-name="quotedblleft" unicode="&#x201c;" horiz-adv-x="407" 
d="M352 549v63h-69v31q0 46 62 51v30h-16q-51 0 -74 -19t-23 -63v-93h120zM175 549v63h-69v31q0 46 62 51v30h-16q-51 0 -74 -19t-23 -63v-93h120z" />
    <glyph glyph-name="quotedblright" unicode="&#x201d;" horiz-adv-x="407" 
d="M347 631v93h-120v-63h69v-31q0 -46 -62 -51v-30h16q51 0 74 19t23 63zM170 631v93h-120v-63h69v-31q0 -46 -62 -51v-30h16q51 0 74 19t23 63z" />
    <glyph glyph-name="bullet" unicode="&#x2022;" horiz-adv-x="549" 
d="M456 357q0 69 -55 122q-53 50 -126 50t-126 -50q-55 -52 -55 -122q0 -34 14 -65.5t41 -57.5q25 -24 57.5 -36.5t68.5 -12.5q74 0 126 49q55 53 55 123z" />
    <glyph glyph-name="endash" unicode="&#x2013;" horiz-adv-x="721" 
d="M661 292v63h-601v-63h601z" />
    <glyph glyph-name="emdash" unicode="&#x2014;" horiz-adv-x="862" 
d="M802 292v63h-742v-63h742z" />
    <glyph glyph-name="tilde" unicode="&#x2dc;" 
d="M396 751l-34 23q-13 -21 -24.5 -31t-31.5 -10q-15 0 -31 6t-32 13t-32.5 13t-33.5 6q-22 0 -42 -16t-45 -48l33 -25q25 40 58 40q12 0 26.5 -6t30.5 -12.5t33.5 -12.5t35.5 -6q50 0 89 66z" />
    <glyph glyph-name="trademark" unicode="&#x2122;" horiz-adv-x="409" 
d="M376 548v166h-57l-36 -100l-39 100h-58v-166h40v125l47 -125h18l46 125v-125h39zM153 681v33h-143v-33h51v-133h41v133h51z" />
    <glyph glyph-name="scaron" unicode="&#x161;" horiz-adv-x="802" 
d="M648 510l38 49q-119 73 -302 73q-147 0 -224.5 -47.5t-77.5 -132.5q0 -47 20.5 -76t61 -45.5t102 -23.5t144.5 -10q63 -3 109.5 -9t77.5 -19t46.5 -34.5t15.5 -55.5q0 -60 -63.5 -96t-182.5 -36q-88 0 -163 20.5t-147 65.5l-37 -53q133 -94 346 -94q158 0 240 52.5
t82 146.5q0 51 -20 83t-60.5 51t-102.5 28t-145 12q-63 2 -110 7.5t-78 17t-46 31t-15 49.5q0 52 57 79.5t169 27.5q74 0 138.5 -14.5t126.5 -46.5zM558 807h-66l-97 -105l-98 105h-66l128 -139h76z" />
    <glyph glyph-name="guilsinglright" unicode="&#x203a;" horiz-adv-x="329" 
d="M278 321l-145 163h-74l138 -163l-136 -162h76z" />
    <glyph glyph-name="oe" unicode="&#x153;" horiz-adv-x="1255" 
d="M1215 0v63h-542v231h360v63h-360v195h518v63h-756q-75 0 -139.5 -20.5t-112.5 -57.5q-113 -89 -113 -230q0 -68 26.5 -124t74.5 -97t116 -63.5t151 -22.5h777zM608 107q0 -41 -97 -44h-76q-69 0 -123.5 17.5t-92.5 49t-58.5 76.5t-20.5 101q0 54 21 99t59.5 77.5t93 50.5
t121.5 18h59q58 0 86 -15t28 -50v-380z" />
    <glyph glyph-name="zcaron" horiz-adv-x="662" 
d="M646 0v63h-543l520 489v63h-602v-63h501l-508 -489v-63h632zM488 807h-66l-97 -105l-98 105h-66l128 -139h76z" />
    <glyph glyph-name="zcaron" unicode="&#x17e;" horiz-adv-x="662" 
d="M646 0v63h-543l520 489v63h-602v-63h501l-508 -489v-63h632zM488 807h-66l-97 -105l-98 105h-66l128 -139h76z" />
    <glyph glyph-name="Ydieresis" unicode="&#x178;" horiz-adv-x="793" 
d="M787 724h-79l-313 -368l-312 368h-79l360 -433v-291h65v291zM526 848q0 20 -15 35t-35 15t-34.5 -14.5t-14.5 -35.5t14.5 -35t34.5 -14q21 0 35.5 14.5t14.5 34.5zM362 848q0 21 -14.5 35.5t-34.5 14.5t-35 -15t-15 -35t14.5 -34.5t35.5 -14.5q20 0 34.5 14.5t14.5 34.5z
" />
    <glyph glyph-name="exclamdown" unicode="&#xa1;" horiz-adv-x="320" 
d="M220 661v63h-120v-63h120zM206 0v30l-15 550h-61l-15 -551v-29h91z" />
    <glyph glyph-name="cent" unicode="&#xa2;" horiz-adv-x="707" 
d="M630 503q-91 103 -227 112v97h-59v-97q-63 -7 -113 -29t-84 -55t-52 -76.5t-18 -94.5q0 -105 69.5 -173.5t197.5 -82.5v-104h59v104q134 3 223 101l-43 28q-74 -76 -180 -80v412q105 -6 179 -80zM344 154q-103 12 -157.5 66.5t-54.5 139.5q0 81 55 136.5t157 68.5v-411z
" />
    <glyph glyph-name="sterling" unicode="&#xa3;" horiz-adv-x="702" 
d="M645 20l-29 56q-45 -22 -91 -22q-26 0 -55.5 5t-63.5 11t-71.5 11t-79.5 5q-50 0 -111 -15q39 32 60.5 82t21.5 110q0 34 -12 91h245v48h-257q-20 69 -20 114q0 168 204 168q63 0 113.5 -16t98.5 -54l30 46q-89 80 -231 80q-66 0 -118 -16t-88 -45.5t-55 -71t-19 -93.5
q0 -47 20 -112h-95v-48h111q14 -54 14 -86q0 -54 -27.5 -105.5t-84.5 -105.5l42 -71q83 43 173 43q37 0 73 -5.5t70 -11.5t66 -11.5t63 -5.5q47 0 103 25z" />
    <glyph glyph-name="currency" unicode="&#xa4;" horiz-adv-x="772" 
d="M691 308q0 64 -22.5 120.5t-64.5 100.5q-45 48 -100.5 71.5t-117.5 23.5t-117.5 -24t-101.5 -72q-42 -44 -64.5 -100t-22.5 -120q0 -79 35 -147.5t98 -114.5q77 -56 173 -56t172 56q63 46 98 114.5t35 147.5zM625 308q0 -64 -26.5 -118.5t-76.5 -92.5q-60 -46 -136 -46
q-75 0 -136 46q-49 38 -76 92.5t-27 118.5q0 106 67 176q36 38 80 58t92 20t92 -20t80 -58q32 -35 49.5 -80t17.5 -96z" />
    <glyph glyph-name="yen" unicode="&#xa5;" horiz-adv-x="836" 
d="M807 724h-79l-313 -368l-312 368h-79l304 -365h-121v-49h162l15 -19v-93h-177v-49h177v-149h65v149h176v49h-176v93l16 19h160v49h-119z" />
    <glyph glyph-name="brokenbar" unicode="&#xa6;" 
d="M277 699h-53v-370h53v370zM277 199h-53v-370h53v370z" />
    <glyph glyph-name="section" unicode="&#xa7;" horiz-adv-x="834" 
d="M710 252q12 15 26 43t14 70q0 48 -18.5 80.5t-55.5 52.5t-93.5 30t-132.5 14q-41 2 -76.5 3.5t-66 4t-56 7.5t-45.5 14q-55 25 -55 79q0 57 59.5 88t176.5 31q74 0 140.5 -16.5t131.5 -51.5l41 46q-60 44 -136 63t-174 19q-152 0 -231.5 -49.5t-79.5 -137.5
q0 -34 11.5 -59t38.5 -47q-50 -50 -50 -115q0 -45 18.5 -74t55.5 -46.5t93 -25.5t132 -12q74 -4 130 -9t93.5 -18t56.5 -36t19 -62q0 -63 -66.5 -102.5t-190.5 -39.5q-89 0 -166.5 22.5t-152.5 70.5l-38 -55q68 -48 157 -72.5t198 -24.5q162 0 247 54.5t85 152.5
q0 32 -9.5 58t-30.5 50zM651 289q-47 16 -93.5 22.5t-91.5 8.5t-87.5 2.5t-81.5 5.5q-75 10 -110.5 33.5t-35.5 70.5q0 43 43 74q39 -10 78.5 -14t78.5 -5.5t78 -2.5t77 -5q171 -17 171 -120q0 -38 -26 -70z" />
    <glyph glyph-name="dieresis" unicode="&#xa8;" 
d="M381 737q0 20 -15 35t-35 15t-34.5 -14.5t-14.5 -35.5t14.5 -35t34.5 -14q21 0 35.5 14.5t14.5 34.5zM217 737q0 21 -14.5 35.5t-34.5 14.5t-35 -15t-15 -35t14.5 -34.5t35.5 -14.5q20 0 34.5 14.5t14.5 34.5z" />
    <glyph glyph-name="copyright" unicode="&#xa9;" horiz-adv-x="833" 
d="M775 354q0 75 -26 139t-77 115t-116 78t-140 27q-147 0 -251 -104q-53 -53 -80 -117.5t-27 -137.5q0 -147 106 -253t252 -106q72 0 137.5 27t118.5 80q103 103 103 252zM733 354q0 -130 -91 -221q-47 -47 -104 -70.5t-122 -23.5q-129 0 -222 93q-46 46 -69.5 102.5
t-23.5 119.5q0 64 24 121.5t70 103.5q91 91 221 91q133 0 225 -92q45 -45 68.5 -102.5t23.5 -121.5zM588 274h-63q-27 -89 -103 -89q-58 0 -91.5 43.5t-33.5 124.5q0 85 32.5 128.5t92.5 43.5q71 0 98 -80h63q-34 130 -163 130q-44 0 -79.5 -15.5t-60.5 -44t-39 -70
t-14 -93.5q0 -103 51 -160.5t137 -57.5q139 0 173 140z" />
    <glyph glyph-name="ordfeminine" unicode="&#xaa;" 
d="M505 309l-223 416h-63l-224 -416h61l57 103h275l56 -103h61zM361 464h-221l111 205z" />
    <glyph glyph-name="guillemotleft" unicode="&#xab;" horiz-adv-x="520" 
d="M460 484h-74l-145 -163l141 -162h76l-136 162zM278 484h-74l-145 -163l141 -162h76l-136 162z" />
    <glyph glyph-name="logicalnot" unicode="&#xac;" horiz-adv-x="730" 
d="M503 319q121 44 121 138q0 37 -18 68t-52 53t-83 34t-112 12q-62 0 -111 -12t-83 -34t-52 -53t-18 -68q0 -48 31 -84.5t91 -53.5q-165 -44 -165 -154q0 -84 78 -129.5t230 -45.5t230 45.5t78 129.5q0 54 -42 94.5t-123 59.5zM557 457q0 -53 -50.5 -83.5t-146.5 -30.5
q-95 0 -145.5 31t-50.5 83q0 49 50 77.5t147 28.5t146.5 -28t49.5 -78zM591 165q0 -53 -58.5 -83t-172.5 -30t-175 31.5t-61 81.5q0 57 60 89.5t176 32.5q114 0 172.5 -32.5t58.5 -89.5z" />
    <glyph glyph-name="registered" unicode="&#xae;" horiz-adv-x="379" 
d="M344 571q0 33 -12 61t-32.5 48.5t-49 32.5t-61.5 12q-32 0 -60 -12t-49 -33t-33 -48.5t-12 -57.5q0 -33 12 -62t32.5 -50t48 -33t58.5 -12q33 0 62 12t50.5 33t33.5 49t12 60zM321 571q0 -28 -10 -52t-28 -42t-42 -28t-52 -10q-27 0 -50.5 10t-41.5 28t-28 42t-10 52
t10 51.5t27.5 41t41.5 27.5t51 10q28 0 52.5 -10t42 -27.5t27.5 -41.5t10 -51zM260 487l-37 74q36 13 36 44q0 49 -71 49h-59v-167h35v69h24l32 -69h40zM188 579h-24v48h22q35 0 35 -24t-33 -24z" />
    <glyph glyph-name="macron" unicode="&#xaf;" 
d="M411 707v47h-317v-47h317z" />
    <glyph glyph-name="macron" unicode="&#x2c9;" 
d="M411 707v47h-317v-47h317z" />
    <glyph glyph-name="degree" unicode="&#xb0;" horiz-adv-x="549" 
d="M456 559q0 69 -55 122q-53 50 -126 50t-126 -50q-55 -52 -55 -122t55 -122q25 -24 57.5 -37t68.5 -13t68 13t58 37q55 53 55 122zM396 559q0 -26 -9.5 -48t-26 -39t-38.5 -26.5t-47 -9.5t-47.5 9.5t-39 26.5t-26 39t-9.5 48t10 48.5t26.5 39.5t38.5 27t47 10q24 0 46 -10
t38.5 -27t26.5 -39.5t10 -48.5z" />
    <glyph glyph-name="plusminus" unicode="&#xb1;" horiz-adv-x="833" 
d="M441 571h-48v-170h-269v-48h269v-170h48v170h268v48h-268v170zM709 73h-585v-48h585v48z" />
    <glyph glyph-name="twosuperior" unicode="&#xb2;" horiz-adv-x="517" 
d="M474 289v38h-401q14 41 40.5 68.5t71.5 46.5q34 14 71 24t77 21q66 19 97 46t31 73q0 54 -54.5 88.5t-147.5 34.5q-56 0 -106 -16.5t-101 -50.5l26 -29q43 31 87 45.5t94 14.5q73 0 113.5 -24.5t40.5 -63.5q0 -40 -45 -64q-29 -16 -66 -24.5t-76 -21.5q-51 -17 -90.5 -36
t-68.5 -55q-38 -47 -42 -115h449z" />
    <glyph glyph-name="threesuperior" unicode="&#xb3;" horiz-adv-x="529" 
d="M357 515q97 27 97 100q0 53 -52 83.5t-147 30.5q-101 0 -202 -58l26 -29q82 51 178 51q71 0 109 -21.5t38 -59.5q0 -83 -176 -83h-20q-9 0 -19 1v-35h24q108 0 160.5 -19.5t52.5 -61.5q0 -94 -188 -94q-63 0 -109.5 16t-83.5 54l-27 -30q43 -44 95.5 -61t124.5 -17
q117 0 177 32.5t60 94.5q0 42 -30 69.5t-88 36.5z" />
    <glyph glyph-name="acute" unicode="&#xb4;" 
d="M352 807h-80l-57 -139h33z" />
    <glyph glyph-name="mu" unicode="&#xb5;" horiz-adv-x="542" 
d="M168 520h-68l-154 -728h68l56 272q19 -37 52.5 -56.5t78.5 -19.5q50 0 88 20.5t58 58.5v-7q0 -71 67 -71q9 0 20 1t22 4l10 54q-8 -1 -12 -1h-6q-33 0 -33 32q0 10 3 26t8 39l80 376h-68l-59 -272q-22 -102 -66 -153t-104 -51q-54 0 -82 31t-28 88q0 17 2 34t6 34z" />
    <glyph glyph-name="mu" unicode="&#x3bc;" horiz-adv-x="542" 
d="M168 520h-68l-154 -728h68l56 272q19 -37 52.5 -56.5t78.5 -19.5q50 0 88 20.5t58 58.5v-7q0 -71 67 -71q9 0 20 1t22 4l10 54q-8 -1 -12 -1h-6q-33 0 -33 32q0 10 3 26t8 39l80 376h-68l-59 -272q-22 -102 -66 -153t-104 -51q-54 0 -82 31t-28 88q0 17 2 34t6 34z" />
    <glyph glyph-name="paragraph" unicode="&#xb6;" horiz-adv-x="907" 
d="M764 -165v889h-440q-52 0 -95 -16t-74 -44t-48 -66t-17 -81q0 -47 17.5 -87t50 -68.5t78 -44.5t101.5 -16h143v-466h65v466h154v-466h65zM699 364h-154v297h154v-297zM480 364h-148q-79 0 -126 41t-47 108q0 148 180 148h141v-297z" />
    <glyph glyph-name="periodcentered" unicode="&#xb7;" horiz-adv-x="320" 
d="M215 292v63h-120v-63h120z" />
    <glyph glyph-name="periodcentered" unicode="&#x2219;" horiz-adv-x="320" 
d="M215 292v63h-120v-63h120z" />
    <glyph glyph-name="cedilla" unicode="&#xb8;" 
d="M254 -51h-6l25 60h-44l-52 -117l29 -5q10 14 26 14q12 0 21.5 -9.5t9.5 -22.5q0 -23 -15.5 -35.5t-44.5 -12.5q-18 0 -42 8l-8 -20q39 -16 82 -16q46 0 72 22t26 60q0 74 -79 74z" />
    <glyph glyph-name="onesuperior" unicode="&#xb9;" horiz-adv-x="226" 
d="M144 289v434h-43q-18 -12 -37.5 -21t-39.5 -17v-30l77 32v-398h43z" />
    <glyph glyph-name="ordmasculine" unicode="&#xba;" horiz-adv-x="575" 
d="M534 512q0 45 -18 84t-51 68t-78.5 45.5t-99.5 16.5q-55 0 -100 -16.5t-77.5 -46t-50.5 -69.5t-18 -87q0 -44 18 -82t50.5 -66.5t78 -44.5t99.5 -16q55 0 100.5 16.5t78 45t50.5 67.5t18 85zM478 508q0 -35 -13.5 -64t-38.5 -50.5t-60.5 -33.5t-78.5 -12t-78 12t-60 33.5
t-38.5 50.5t-13.5 63q0 37 14 68t39 53.5t60 35t77 12.5t77.5 -12.5t60.5 -35t39 -53.5t14 -67z" />
    <glyph glyph-name="guillemotright" unicode="&#xbb;" horiz-adv-x="514" 
d="M450 321l-145 163h-74l138 -163l-136 -162h76zM268 321l-145 163h-74l138 -163l-136 -162h76z" />
    <glyph glyph-name="onequarter" unicode="&#xbc;" horiz-adv-x="975" 
d="M137 318v405h-41q-17 -11 -35.5 -19.5t-37.5 -15.5v-28l73 29v-371h41zM693 724h-79l-613 -734h80zM954 85v35h-105v285h-41l-308 -284v-36h308v-85h41v85h105zM808 120h-268l268 243v-243z" />
    <glyph glyph-name="onehalf" unicode="&#xbd;" horiz-adv-x="977" 
d="M137 318v405h-41q-17 -11 -35.5 -19.5t-37.5 -15.5v-28l73 29v-371h41zM693 724h-79l-613 -734h80zM935 0v35h-382q13 38 38.5 64t67.5 44q32 14 67.5 22.5t73.5 19.5q63 17 93 42.5t30 68.5q0 50 -52 82.5t-141 32.5q-54 0 -101.5 -15.5t-95.5 -47.5l24 -27
q81 56 173 56q69 0 108 -23t39 -59q0 -38 -43 -60q-28 -14 -63 -22.5t-73 -20.5q-48 -16 -86 -33.5t-65 -50.5q-36 -44 -40 -108h428z" />
    <glyph glyph-name="threequarters" unicode="&#xbe;" horiz-adv-x="1265" 
d="M340 529q92 24 92 93q0 50 -49.5 78.5t-140.5 28.5q-97 0 -192 -55l24 -27q79 48 170 48q68 0 104 -20t36 -55q0 -78 -168 -78h-18t-19 1v-32h23q203 0 203 -77q0 -87 -179 -87q-60 0 -104.5 15t-79.5 51l-25 -29q41 -41 90.5 -57t118.5 -16q112 0 169 31t57 88
q0 39 -28.5 64.5t-83.5 34.5zM982 724h-79l-613 -734h80zM1243 85v35h-105v285h-41l-308 -284v-36h308v-85h41v85h105zM1097 120h-268l268 243v-243z" />
    <glyph glyph-name="questiondown" unicode="&#xbf;" horiz-adv-x="684" 
d="M456 661v63h-120v-63h120zM645 113l-52 38q-54 -51 -113.5 -75t-132.5 -24q-109 0 -166 37t-57 101q0 30 11 49.5t37 35.5q17 11 43.5 18.5t60.5 18.5q41 14 70.5 33t48.5 46.5t28.5 64t11.5 84.5l1 40h-67v-17q0 -57 -10 -95t-34 -59q-18 -16 -42 -24t-53 -18
q-44 -14 -77.5 -28.5t-56.5 -33.5t-34.5 -45.5t-11.5 -65.5q0 -47 19.5 -85t56.5 -64.5t91 -41t123 -14.5q198 0 305 124z" />
    <glyph glyph-name="Agrave" unicode="&#xc0;" horiz-adv-x="870" 
d="M864 0l-381 724h-96l-383 -724h75l101 188h510l99 -188h75zM657 251h-444l218 410h9zM465 779l-58 139h-79l104 -139h33z" />
    <glyph glyph-name="Aacute" unicode="&#xc1;" horiz-adv-x="870" 
d="M864 0l-381 724h-96l-383 -724h75l101 188h510l99 -188h75zM657 251h-444l218 410h9zM535 918h-80l-57 -139h33z" />
    <glyph glyph-name="Acircumflex" unicode="&#xc2;" horiz-adv-x="870" 
d="M864 0l-381 724h-96l-383 -724h75l101 188h510l99 -188h75zM657 251h-444l218 410h9zM594 780l-123 139h-76l-128 -139h66l98 105l97 -105h66z" />
    <glyph glyph-name="Atilde" unicode="&#xc3;" horiz-adv-x="870" 
d="M864 0l-381 724h-96l-383 -724h75l101 188h510l99 -188h75zM657 251h-444l218 410h9zM579 862l-34 23q-13 -21 -24.5 -31t-31.5 -10q-15 0 -31 6t-32 13t-32.5 13t-33.5 6q-22 0 -42 -16t-45 -48l33 -25q25 40 58 40q12 0 26.5 -6t30.5 -12.5t33.5 -12.5t35.5 -6
q50 0 89 66z" />
    <glyph glyph-name="Adieresis" unicode="&#xc4;" horiz-adv-x="870" 
d="M864 0l-381 724h-96l-383 -724h75l101 188h510l99 -188h75zM657 251h-444l218 410h9zM564 848q0 20 -15 35t-35 15t-34.5 -14.5t-14.5 -35.5t14.5 -35t34.5 -14q21 0 35.5 14.5t14.5 34.5zM400 848q0 21 -14.5 35.5t-34.5 14.5t-35 -15t-15 -35t14.5 -34.5t35.5 -14.5
q20 0 34.5 14.5t14.5 34.5z" />
    <glyph glyph-name="Aring" unicode="&#xc5;" horiz-adv-x="950" 
d="M574 848q0 16 -7.5 30.5t-20.5 25t-31.5 17t-39.5 6.5t-39.5 -6.5t-31.5 -17t-20.5 -25t-7.5 -30.5t7.5 -30.5t20.5 -25t31.5 -17t39.5 -6.5t39.5 6.5t31.5 17t20.5 25t7.5 30.5zM905 0l-381 724h-96l-383 -724h75l101 188h510l99 -188h75zM536 848q0 -19 -16 -32.5
t-45 -13.5q-28 0 -44 13t-16 33t16.5 33.5t43.5 13.5q28 0 44.5 -14t16.5 -33zM698 251h-444l218 410h9z" />
    <glyph glyph-name="AE" unicode="&#xc6;" horiz-adv-x="1294" 
d="M1252 0v63h-638v289h424v63h-424v246h610v63h-725l-494 -724h72l129 188h343v-188h703zM549 251h-300l279 410h21v-410z" />
    <glyph glyph-name="Ccedilla" unicode="&#xc7;" horiz-adv-x="973" 
d="M894 586q-63 79 -158 120t-217 41q-89 0 -166 -25.5t-135 -73.5q-134 -110 -134 -284q0 -78 26 -144t76.5 -115.5t123.5 -81.5t167 -42l-40 -89l29 -5q10 14 26 14q13 0 22 -9t9 -23q0 -23 -15.5 -35.5t-44.5 -12.5q-18 0 -42 8l-8 -20q39 -16 82 -16q46 0 72 22t26 60
q0 74 -79 74h-6l13 31q258 0 369 147l-54 35q-57 -63 -134 -91.5t-183 -28.5q-82 0 -149.5 23.5t-115.5 66t-74.5 101.5t-26.5 131q0 149 117 242q48 38 112.5 59t136.5 21q101 0 178 -29t139 -94z" />
    <glyph glyph-name="Egrave" unicode="&#xc8;" horiz-adv-x="871" 
d="M828 0v63h-638v289h424v63h-424v246h610v63h-675v-724h703zM501 779l-58 139h-79l104 -139h33z" />
    <glyph glyph-name="Eacute" unicode="&#xc9;" horiz-adv-x="871" 
d="M828 0v63h-638v289h424v63h-424v246h610v63h-675v-724h703zM571 918h-80l-57 -139h33z" />
    <glyph glyph-name="Ecircumflex" unicode="&#xca;" horiz-adv-x="871" 
d="M828 0v63h-638v289h424v63h-424v246h610v63h-675v-724h703zM630 780l-123 139h-76l-128 -139h66l98 105l97 -105h66z" />
    <glyph glyph-name="Edieresis" unicode="&#xcb;" horiz-adv-x="871" 
d="M828 0v63h-638v289h424v63h-424v246h610v63h-675v-724h703zM600 848q0 20 -15 35t-35 15t-34.5 -14.5t-14.5 -35.5t14.5 -35t34.5 -14q21 0 35.5 14.5t14.5 34.5zM436 848q0 21 -14.5 35.5t-34.5 14.5t-35 -15t-15 -35t14.5 -34.5t35.5 -14.5q20 0 34.5 14.5t14.5 34.5z
" />
    <glyph glyph-name="Igrave" unicode="&#xcc;" horiz-adv-x="317" 
d="M189 0v724h-65v-724h65zM189 779l-58 139h-79l104 -139h33z" />
    <glyph glyph-name="Iacute" unicode="&#xcd;" horiz-adv-x="317" 
d="M189 0v724h-65v-724h65zM259 918h-80l-57 -139h33z" />
    <glyph glyph-name="Icircumflex" unicode="&#xce;" horiz-adv-x="317" 
d="M189 0v724h-65v-724h65zM318 780l-123 139h-76l-128 -139h66l98 105l97 -105h66z" />
    <glyph glyph-name="Idieresis" unicode="&#xcf;" horiz-adv-x="317" 
d="M189 0v724h-65v-724h65zM288 848q0 20 -15 35t-35 15t-34.5 -14.5t-14.5 -35.5t14.5 -35t34.5 -14q21 0 35.5 14.5t14.5 34.5zM124 848q0 21 -14.5 35.5t-34.5 14.5t-35 -15t-15 -35t14.5 -34.5t35.5 -14.5q20 0 34.5 14.5t14.5 34.5z" />
    <glyph glyph-name="Eth" unicode="&#xd0;" horiz-adv-x="1024" 
d="M557 724h-431v-329h-67v-63h67v-332h455q75 0 140.5 25.5t115.5 74.5q51 50 77 114.5t26 139.5q0 85 -26.5 153.5t-76 116.5t-120.5 74t-160 26zM586 63h-395v269h367v63h-367v266h376q66 0 121 -22t94.5 -62t61 -96t21.5 -124q0 -60 -20 -113t-57 -94q-39 -43 -90.5 -65
t-111.5 -22z" />
    <glyph glyph-name="Ntilde" unicode="&#xd1;" horiz-adv-x="1020" 
d="M893 0v724h-65v-661l-609 661h-94v-724h65v661l611 -661h92zM654 862l-34 23q-13 -21 -24.5 -31t-31.5 -10q-15 0 -31 6t-32 13t-32.5 13t-33.5 6q-22 0 -42 -16t-45 -48l33 -25q25 40 58 40q12 0 26.5 -6t30.5 -12.5t33.5 -12.5t35.5 -6q50 0 89 66z" />
    <glyph glyph-name="Ograve" unicode="&#xd2;" horiz-adv-x="1041" 
d="M956 363q0 173 -135 284q-58 48 -135.5 74t-165.5 26q-89 0 -166.5 -26t-135.5 -74q-135 -111 -135 -284q0 -175 134 -285q57 -47 134.5 -73t168.5 -26t168 26t134 73q134 110 134 285zM887 363q0 -72 -26.5 -131.5t-74.5 -101.5t-115.5 -65.5t-150.5 -23.5t-150.5 23
t-115.5 65.5t-74 102t-26 131.5q0 149 117 242q48 38 112.5 59.5t136.5 21.5t136.5 -21.5t112.5 -59.5q118 -94 118 -242zM551 779l-58 139h-79l104 -139h33z" />
    <glyph glyph-name="Oacute" unicode="&#xd3;" horiz-adv-x="1041" 
d="M956 363q0 173 -135 284q-58 48 -135.5 74t-165.5 26q-89 0 -166.5 -26t-135.5 -74q-135 -111 -135 -284q0 -175 134 -285q57 -47 134.5 -73t168.5 -26t168 26t134 73q134 110 134 285zM887 363q0 -72 -26.5 -131.5t-74.5 -101.5t-115.5 -65.5t-150.5 -23.5t-150.5 23
t-115.5 65.5t-74 102t-26 131.5q0 149 117 242q48 38 112.5 59.5t136.5 21.5t136.5 -21.5t112.5 -59.5q118 -94 118 -242zM621 918h-80l-57 -139h33z" />
    <glyph glyph-name="Ocircumflex" unicode="&#xd4;" horiz-adv-x="1041" 
d="M956 363q0 173 -135 284q-58 48 -135.5 74t-165.5 26q-89 0 -166.5 -26t-135.5 -74q-135 -111 -135 -284q0 -175 134 -285q57 -47 134.5 -73t168.5 -26t168 26t134 73q134 110 134 285zM887 363q0 -72 -26.5 -131.5t-74.5 -101.5t-115.5 -65.5t-150.5 -23.5t-150.5 23
t-115.5 65.5t-74 102t-26 131.5q0 149 117 242q48 38 112.5 59.5t136.5 21.5t136.5 -21.5t112.5 -59.5q118 -94 118 -242zM680 780l-123 139h-76l-128 -139h66l98 105l97 -105h66z" />
    <glyph glyph-name="Otilde" unicode="&#xd5;" horiz-adv-x="1041" 
d="M956 363q0 173 -135 284q-58 48 -135.5 74t-165.5 26q-89 0 -166.5 -26t-135.5 -74q-135 -111 -135 -284q0 -175 134 -285q57 -47 134.5 -73t168.5 -26t168 26t134 73q134 110 134 285zM887 363q0 -72 -26.5 -131.5t-74.5 -101.5t-115.5 -65.5t-150.5 -23.5t-150.5 23
t-115.5 65.5t-74 102t-26 131.5q0 149 117 242q48 38 112.5 59.5t136.5 21.5t136.5 -21.5t112.5 -59.5q118 -94 118 -242zM665 862l-34 23q-13 -21 -24.5 -31t-31.5 -10q-15 0 -31 6t-32 13t-32.5 13t-33.5 6q-22 0 -42 -16t-45 -48l33 -25q25 40 58 40q12 0 26.5 -6
t30.5 -12.5t33.5 -12.5t35.5 -6q50 0 89 66z" />
    <glyph glyph-name="Odieresis" unicode="&#xd6;" horiz-adv-x="1041" 
d="M956 363q0 173 -135 284q-58 48 -135.5 74t-165.5 26q-89 0 -166.5 -26t-135.5 -74q-135 -111 -135 -284q0 -175 134 -285q57 -47 134.5 -73t168.5 -26t168 26t134 73q134 110 134 285zM887 363q0 -72 -26.5 -131.5t-74.5 -101.5t-115.5 -65.5t-150.5 -23.5t-150.5 23
t-115.5 65.5t-74 102t-26 131.5q0 149 117 242q48 38 112.5 59.5t136.5 21.5t136.5 -21.5t112.5 -59.5q118 -94 118 -242zM650 848q0 20 -15 35t-35 15t-34.5 -14.5t-14.5 -35.5t14.5 -35t34.5 -14q21 0 35.5 14.5t14.5 34.5zM486 848q0 21 -14.5 35.5t-34.5 14.5t-35 -15
t-15 -35t14.5 -34.5t35.5 -14.5q20 0 34.5 14.5t14.5 34.5z" />
    <glyph glyph-name="multiply" unicode="&#xd7;" horiz-adv-x="833" 
d="M418 332l-235 235l-34 -34l235 -235l-235 -235l34 -34l235 235l235 -235l34 34l-235 235l235 235l-34 34z" />
    <glyph glyph-name="Oslash" unicode="&#xd8;" horiz-adv-x="1041" 
d="M795 668l84 103h-72l-61 -75q-56 26 -111 38.5t-114 12.5q-89 0 -167 -26t-135 -74q-135 -111 -135 -284q0 -91 35.5 -161.5t111.5 -133.5l-92 -112h72l67 82q60 -30 119 -44.5t124 -14.5q90 0 167.5 26t134.5 73q134 110 134 285q0 94 -39.5 167.5t-122.5 137.5zM319 88
l434 529q69 -53 102 -114.5t33 -139.5q0 -72 -26.5 -131.5t-74.5 -101.5t-115.5 -65.5t-150.5 -23.5q-107 0 -202 47zM704 645l-433 -527q-61 51 -88.5 110t-27.5 135q0 149 117 242q48 38 112.5 59.5t136.5 21.5q47 0 91.5 -10.5t91.5 -30.5z" />
    <glyph glyph-name="Ugrave" unicode="&#xd9;" horiz-adv-x="1016" 
d="M889 226v498h-65v-473q0 -209 -316 -209q-318 0 -318 209v473h-65v-498q0 -54 26.5 -99t76.5 -78t120.5 -51.5t159.5 -18.5q88 0 159 18.5t120 51t75.5 78t26.5 99.5zM538 779l-58 139h-79l104 -139h33z" />
    <glyph glyph-name="Uacute" unicode="&#xda;" horiz-adv-x="1016" 
d="M889 226v498h-65v-473q0 -209 -316 -209q-318 0 -318 209v473h-65v-498q0 -54 26.5 -99t76.5 -78t120.5 -51.5t159.5 -18.5q88 0 159 18.5t120 51t75.5 78t26.5 99.5zM608 918h-80l-57 -139h33z" />
    <glyph glyph-name="Ucircumflex" unicode="&#xdb;" horiz-adv-x="1016" 
d="M889 226v498h-65v-473q0 -209 -316 -209q-318 0 -318 209v473h-65v-498q0 -54 26.5 -99t76.5 -78t120.5 -51.5t159.5 -18.5q88 0 159 18.5t120 51t75.5 78t26.5 99.5zM667 780l-123 139h-76l-128 -139h66l98 105l97 -105h66z" />
    <glyph glyph-name="Udieresis" unicode="&#xdc;" horiz-adv-x="1016" 
d="M889 226v498h-65v-473q0 -209 -316 -209q-318 0 -318 209v473h-65v-498q0 -54 26.5 -99t76.5 -78t120.5 -51.5t159.5 -18.5q88 0 159 18.5t120 51t75.5 78t26.5 99.5zM637 848q0 20 -15 35t-35 15t-34.5 -14.5t-14.5 -35.5t14.5 -35t34.5 -14q21 0 35.5 14.5t14.5 34.5z
M473 848q0 21 -14.5 35.5t-34.5 14.5t-35 -15t-15 -35t14.5 -34.5t35.5 -14.5q20 0 34.5 14.5t14.5 34.5z" />
    <glyph glyph-name="Yacute" unicode="&#xdd;" horiz-adv-x="793" 
d="M787 724h-79l-313 -368l-312 368h-79l360 -433v-291h65v291zM497 918h-80l-57 -139h33z" />
    <glyph glyph-name="Thorn" unicode="&#xde;" horiz-adv-x="913" 
d="M672 615h-481v109h-65v-724h65v188h464q55 0 98.5 15t74 42.5t46.5 66.5t16 87q0 49 -15 89t-43.5 68.5t-69 43.5t-90.5 15zM667 251h-476v301h452q175 0 175 -150q0 -72 -39.5 -111.5t-111.5 -39.5z" />
    <glyph glyph-name="germandbls" unicode="&#xdf;" horiz-adv-x="1559" 
d="M1406 510l38 49q-119 73 -302 73q-147 0 -224.5 -47.5t-77.5 -132.5q0 -47 20.5 -76t61 -45.5t102 -23.5t144.5 -10q63 -3 109.5 -9t77.5 -19t46.5 -34.5t15.5 -55.5q0 -60 -63.5 -96t-182.5 -36q-88 0 -163 20t-147 66l-37 -53q132 -94 346 -94q158 0 240 52.5t82 146.5
q0 51 -20 83t-60.5 51.5t-102.5 28t-145 11.5q-63 2 -110 7.5t-78 17t-46 31t-15 49.5q0 52 57 79.5t169 27.5q74 0 138.5 -14.5t126.5 -46.5zM649 510l38 49q-119 73 -302 73q-147 0 -224.5 -47.5t-77.5 -132.5q0 -47 20.5 -76t61 -45.5t102 -23.5t144.5 -10
q63 -3 109.5 -9t77.5 -19t46.5 -34.5t15.5 -55.5q0 -60 -63.5 -96t-182.5 -36q-88 0 -163 20.5t-147 65.5l-37 -53q133 -94 346 -94q158 0 240 52.5t82 146.5q0 51 -20 83t-60.5 51t-102.5 28t-145 12q-63 2 -110 7.5t-78 17t-46 31t-15 49.5q0 52 57 79.5t169 27.5
q74 0 138.5 -14.5t126.5 -46.5z" />
    <glyph glyph-name="agrave" unicode="&#xe0;" horiz-adv-x="758" 
d="M752 0l-330 615h-87l-331 -615h75l86 157h427l84 -157h76zM559 220h-361l180 333h2zM409 668l-58 139h-79l104 -139h33z" />
    <glyph glyph-name="aacute" unicode="&#xe1;" horiz-adv-x="758" 
d="M752 0l-330 615h-87l-331 -615h75l86 157h427l84 -157h76zM559 220h-361l180 333h2zM479 807h-80l-57 -139h33z" />
    <glyph glyph-name="acircumflex" unicode="&#xe2;" horiz-adv-x="758" 
d="M752 0l-330 615h-87l-331 -615h75l86 157h427l84 -157h76zM559 220h-361l180 333h2zM538 669l-123 139h-76l-128 -139h66l98 105l97 -105h66z" />
    <glyph glyph-name="atilde" unicode="&#xe3;" horiz-adv-x="758" 
d="M752 0l-330 615h-87l-331 -615h75l86 157h427l84 -157h76zM559 220h-361l180 333h2zM523 751l-34 23q-13 -21 -24.5 -31t-31.5 -10q-15 0 -31 6t-32 13t-32.5 13t-33.5 6q-22 0 -42 -16t-45 -48l33 -25q25 40 58 40q12 0 26.5 -6t30.5 -12.5t33.5 -12.5t35.5 -6
q50 0 89 66z" />
    <glyph glyph-name="adieresis" unicode="&#xe4;" horiz-adv-x="758" 
d="M752 0l-330 615h-87l-331 -615h75l86 157h427l84 -157h76zM559 220h-361l180 333h2zM508 737q0 20 -15 35t-35 15t-34.5 -14.5t-14.5 -35.5t14.5 -35t34.5 -14q21 0 35.5 14.5t14.5 34.5zM344 737q0 21 -14.5 35.5t-34.5 14.5t-35 -15t-15 -35t14.5 -34.5t35.5 -14.5
q20 0 34.5 14.5t14.5 34.5z" />
    <glyph glyph-name="aring" unicode="&#xe5;" horiz-adv-x="758" 
d="M480 744q0 16 -7.5 30.5t-20.5 25t-31.5 17t-39.5 6.5t-39.5 -6.5t-31.5 -17t-20.5 -25t-7.5 -30.5t7.5 -30.5t20.5 -25t31.5 -17t39.5 -6.5t39.5 6.5t31.5 17t20.5 25t7.5 30.5zM753 0l-330 615h-87l-331 -615h75l86 157h427l84 -157h76zM442 744q0 -19 -16.5 -32.5
t-44.5 -13.5t-44 13t-16 33t16.5 33.5t43.5 13.5q28 0 44.5 -13.5t16.5 -33.5zM560 220h-361l180 333h2z" />
    <glyph glyph-name="ae" unicode="&#xe6;" horiz-adv-x="1119" 
d="M1079 0v63h-543v231h361v63h-361v195h519v63h-624l-426 -615h73l110 157h283v-157h608zM471 220h-240l230 332h10v-332z" />
    <glyph glyph-name="ccedilla" unicode="&#xe7;" horiz-adv-x="837" 
d="M772 493q-57 69 -139.5 105.5t-187.5 36.5q-77 0 -143.5 -22.5t-116.5 -62.5q-115 -93 -115 -240q0 -68 23 -124t67 -98t107.5 -68.5t145.5 -34.5l-41 -93l29 -5q10 14 26 14q12 0 21.5 -9.5t9.5 -22.5q0 -23 -15.5 -35.5t-44.5 -12.5q-18 0 -42 8l-8 -20q39 -16 82 -16
q46 0 72 22t26 60q0 35 -20.5 54.5t-58.5 19.5h-6l15 35q103 1 179.5 32t130.5 97l-55 34q-46 -53 -111.5 -77.5t-156.5 -24.5q-68 0 -124.5 20t-97 54.5t-62.5 81.5t-22 102q0 59 22 108.5t62.5 85.5t96.5 56.5t125 20.5q91 0 157.5 -27t110.5 -77z" />
    <glyph glyph-name="egrave" unicode="&#xe8;" horiz-adv-x="760" 
d="M719 0v63h-543v231h361v63h-361v195h519v63h-584v-615h608zM430 668l-58 139h-79l104 -139h33z" />
    <glyph glyph-name="eacute" unicode="&#xe9;" horiz-adv-x="760" 
d="M719 0v63h-543v231h361v63h-361v195h519v63h-584v-615h608zM500 807h-80l-57 -139h33z" />
    <glyph glyph-name="ecircumflex" unicode="&#xea;" horiz-adv-x="760" 
d="M719 0v63h-543v231h361v63h-361v195h519v63h-584v-615h608zM559 669l-123 139h-76l-128 -139h66l98 105l97 -105h66z" />
    <glyph glyph-name="edieresis" unicode="&#xeb;" horiz-adv-x="760" 
d="M719 0v63h-543v231h361v63h-361v195h519v63h-584v-615h608zM529 737q0 20 -15 35t-35 15t-34.5 -14.5t-14.5 -35.5t14.5 -35t34.5 -14q21 0 35.5 14.5t14.5 34.5zM365 737q0 21 -14.5 35.5t-34.5 14.5t-35 -15t-15 -35t14.5 -34.5t35.5 -14.5q20 0 34.5 14.5t14.5 34.5z
" />
    <glyph glyph-name="igrave" unicode="&#xec;" horiz-adv-x="290" 
d="M176 0v615h-65v-615h65zM176 668l-58 139h-79l104 -139h33z" />
    <glyph glyph-name="iacute" unicode="&#xed;" horiz-adv-x="290" 
d="M176 0v615h-65v-615h65zM246 807h-80l-57 -139h33z" />
    <glyph glyph-name="icircumflex" unicode="&#xee;" horiz-adv-x="290" 
d="M176 0v615h-65v-615h65zM305 669l-123 139h-76l-128 -139h66l98 105l97 -105h66z" />
    <glyph glyph-name="idieresis" unicode="&#xef;" horiz-adv-x="290" 
d="M176 0v615h-65v-615h65zM275 737q0 20 -15 35t-35 15t-34.5 -14.5t-14.5 -35.5t14.5 -35t34.5 -14q21 0 35.5 14.5t14.5 34.5zM111 737q0 21 -14.5 35.5t-34.5 14.5t-35 -15t-15 -35t14.5 -34.5t35.5 -14.5q20 0 34.5 14.5t14.5 34.5z" />
    <glyph glyph-name="eth" unicode="&#xf0;" horiz-adv-x="889" 
d="M482 615h-371v-275h-57v-63h57v-277h392q65 0 121 21t99 63q45 42 67.5 97.5t22.5 119.5q0 72 -23 130.5t-65.5 99t-104 62.5t-138.5 22zM507 63h-331v214h312v63h-312v212h315q56 0 101.5 -18t78 -50.5t50.5 -78.5t18 -101q0 -38 -10 -73t-29 -66q-29 -47 -81 -74.5
t-112 -27.5z" />
    <glyph glyph-name="ntilde" unicode="&#xf1;" horiz-adv-x="887" 
d="M774 0v615h-65v-553l-516 553h-82v-615h65v553l516 -553h82zM588 751l-34 23q-13 -21 -24.5 -31t-31.5 -10q-15 0 -31 6t-32 13t-32.5 13t-33.5 6q-22 0 -42 -16t-45 -48l33 -25q25 40 58 40q12 0 26.5 -6t30.5 -12.5t33.5 -12.5t35.5 -6q50 0 89 66z" />
    <glyph glyph-name="ograve" unicode="&#xf2;" horiz-adv-x="893" 
d="M822 309q0 147 -117 241q-50 41 -117 63.5t-143 22.5t-143 -22.5t-117 -63.5q-116 -93 -116 -241t115 -242q50 -40 116.5 -62.5t144.5 -22.5t145 22t117 62q115 94 115 243zM752 303q0 -56 -22 -103t-62 -81.5t-97 -54t-126 -19.5t-125.5 19.5t-96.5 53.5t-62 81t-22 102
q0 59 22 109t62.5 86.5t97 57t124.5 20.5t124.5 -20.5t97 -56.5t63 -86t22.5 -108zM477 668l-58 139h-79l104 -139h33z" />
    <glyph glyph-name="oacute" unicode="&#xf3;" horiz-adv-x="893" 
d="M822 309q0 147 -117 241q-50 41 -117 63.5t-143 22.5t-143 -22.5t-117 -63.5q-116 -93 -116 -241t115 -242q50 -40 116.5 -62.5t144.5 -22.5t145 22t117 62q115 94 115 243zM752 303q0 -56 -22 -103t-62 -81.5t-97 -54t-126 -19.5t-125.5 19.5t-96.5 53.5t-62 81t-22 102
q0 59 22 109t62.5 86.5t97 57t124.5 20.5t124.5 -20.5t97 -56.5t63 -86t22.5 -108zM547 807h-80l-57 -139h33z" />
    <glyph glyph-name="ocircumflex" unicode="&#xf4;" horiz-adv-x="893" 
d="M822 309q0 147 -117 241q-50 41 -117 63.5t-143 22.5t-143 -22.5t-117 -63.5q-116 -93 -116 -241t115 -242q50 -40 116.5 -62.5t144.5 -22.5t145 22t117 62q115 94 115 243zM752 303q0 -56 -22 -103t-62 -81.5t-97 -54t-126 -19.5t-125.5 19.5t-96.5 53.5t-62 81t-22 102
q0 59 22 109t62.5 86.5t97 57t124.5 20.5t124.5 -20.5t97 -56.5t63 -86t22.5 -108zM606 669l-123 139h-76l-128 -139h66l98 105l97 -105h66z" />
    <glyph glyph-name="otilde" unicode="&#xf5;" horiz-adv-x="893" 
d="M822 309q0 147 -117 241q-50 41 -117 63.5t-143 22.5t-143 -22.5t-117 -63.5q-116 -93 -116 -241t115 -242q50 -40 116.5 -62.5t144.5 -22.5t145 22t117 62q115 94 115 243zM752 303q0 -56 -22 -103t-62 -81.5t-97 -54t-126 -19.5t-125.5 19.5t-96.5 53.5t-62 81t-22 102
q0 59 22 109t62.5 86.5t97 57t124.5 20.5t124.5 -20.5t97 -56.5t63 -86t22.5 -108zM591 751l-34 23q-13 -21 -24.5 -31t-31.5 -10q-15 0 -31 6t-32 13t-32.5 13t-33.5 6q-22 0 -42 -16t-45 -48l33 -25q25 40 58 40q12 0 26.5 -6t30.5 -12.5t33.5 -12.5t35.5 -6q50 0 89 66z
" />
    <glyph glyph-name="odieresis" unicode="&#xf6;" horiz-adv-x="893" 
d="M822 309q0 147 -117 241q-50 41 -117 63.5t-143 22.5t-143 -22.5t-117 -63.5q-116 -93 -116 -241t115 -242q50 -40 116.5 -62.5t144.5 -22.5t145 22t117 62q115 94 115 243zM752 303q0 -56 -22 -103t-62 -81.5t-97 -54t-126 -19.5t-125.5 19.5t-96.5 53.5t-62 81t-22 102
q0 59 22 109t62.5 86.5t97 57t124.5 20.5t124.5 -20.5t97 -56.5t63 -86t22.5 -108zM576 737q0 20 -15 35t-35 15t-34.5 -14.5t-14.5 -35.5t14.5 -35t34.5 -14q21 0 35.5 14.5t14.5 34.5zM412 737q0 21 -14.5 35.5t-34.5 14.5t-35 -15t-15 -35t14.5 -34.5t35.5 -14.5
q20 0 34.5 14.5t14.5 34.5z" />
    <glyph glyph-name="divide" unicode="&#xf7;" horiz-adv-x="833" 
d="M417 523q-21 0 -36.5 -15.5t-15.5 -37.5t14.5 -37t37.5 -15t37.5 15.5t14.5 36.5q0 22 -15 37.5t-37 15.5zM709 322h-585v-48h585v48zM417 178q-21 0 -36.5 -15t-15.5 -37t15 -37t37 -15q23 0 37.5 15.5t14.5 36.5q0 22 -15 37t-37 15z" />
    <glyph glyph-name="oslash" unicode="&#xf8;" horiz-adv-x="893" 
d="M691 562l77 95h-75l-52 -65q-100 44 -195 44q-76 0 -143 -22.5t-117 -63.5q-116 -93 -116 -241q0 -78 30.5 -138t96.5 -113l-86 -103h77l60 72q97 -45 198 -45q78 0 145 22t117 62q115 94 115 243q0 77 -32 138t-100 115zM289 77l361 435q53 -43 78 -92t25 -111
q0 -59 -22 -107.5t-62 -83t-96.5 -54t-126.5 -19.5q-83 0 -157 32zM599 541l-362 -434q-50 43 -73.5 89.5t-23.5 102.5q0 60 22 110.5t62.5 87t96.5 57t125 20.5q76 0 153 -33z" />
    <glyph glyph-name="ugrave" unicode="&#xf9;" horiz-adv-x="869" 
d="M763 201v414h-65v-393q0 -170 -263 -170q-266 0 -266 170v393h-65v-414q0 -46 23 -84.5t66 -66.5t104 -44t138 -16q76 0 137 15.5t103.5 43.5t65 67t22.5 85zM465 668l-58 139h-79l104 -139h33z" />
    <glyph glyph-name="uacute" unicode="&#xfa;" horiz-adv-x="869" 
d="M763 201v414h-65v-393q0 -170 -263 -170q-266 0 -266 170v393h-65v-414q0 -46 23 -84.5t66 -66.5t104 -44t138 -16q76 0 137 15.5t103.5 43.5t65 67t22.5 85zM535 807h-80l-57 -139h33z" />
    <glyph glyph-name="ucircumflex" unicode="&#xfb;" horiz-adv-x="869" 
d="M763 201v414h-65v-393q0 -170 -263 -170q-266 0 -266 170v393h-65v-414q0 -46 23 -84.5t66 -66.5t104 -44t138 -16q76 0 137 15.5t103.5 43.5t65 67t22.5 85zM594 669l-123 139h-76l-128 -139h66l98 105l97 -105h66z" />
    <glyph glyph-name="udieresis" unicode="&#xfc;" horiz-adv-x="869" 
d="M763 201v414h-65v-393q0 -170 -263 -170q-266 0 -266 170v393h-65v-414q0 -46 23 -84.5t66 -66.5t104 -44t138 -16q76 0 137 15.5t103.5 43.5t65 67t22.5 85zM564 737q0 20 -15 35t-35 15t-34.5 -14.5t-14.5 -35.5t14.5 -35t34.5 -14q21 0 35.5 14.5t14.5 34.5zM400 737
q0 21 -14.5 35.5t-34.5 14.5t-35 -15t-15 -35t14.5 -34.5t35.5 -14.5q20 0 34.5 14.5t14.5 34.5z" />
    <glyph glyph-name="yacute" unicode="&#xfd;" horiz-adv-x="697" 
d="M691 615h-81l-263 -305l-263 305h-80l312 -368v-247h65v247zM449 807h-80l-57 -139h33z" />
    <glyph glyph-name="thorn" unicode="&#xfe;" horiz-adv-x="791" 
d="M581 552h-404v63h-65v-615h65v185h390q95 0 150 49.5t55 132.5q0 85 -51.5 135t-139.5 50zM577 248h-400v241h380q143 0 143 -120q0 -58 -32 -89.5t-91 -31.5z" />
    <glyph glyph-name="ydieresis" unicode="&#xff;" horiz-adv-x="697" 
d="M691 615h-81l-263 -305l-263 305h-80l312 -368v-247h65v247zM478 737q0 20 -15 35t-35 15t-34.5 -14.5t-14.5 -35.5t14.5 -35t34.5 -14q21 0 35.5 14.5t14.5 34.5zM314 737q0 21 -14.5 35.5t-34.5 14.5t-35 -15t-15 -35t14.5 -34.5t35.5 -14.5q20 0 34.5 14.5t14.5 34.5z
" />
    <glyph glyph-name="A" unicode="A" horiz-adv-x="870" 
d="M865 0l-381 724h-96l-383 -724h75l101 188h510l99 -188h75zM658 251h-444l218 410h9z" />
    <glyph glyph-name="Lslash" unicode="&#x141;" horiz-adv-x="755" 
d="M750 0v63h-559v227l243 163v73l-243 -163v361h-65v-404l-49 -33v-73l49 33v-247h624z" />
    <glyph glyph-name="breve" unicode="&#x2d8;" 
d="M383 771h-55q-6 -50 -79 -50t-79 50h-55q6 -47 42.5 -74.5t91.5 -27.5q56 0 92.5 28t41.5 74z" />
    <glyph glyph-name="caron" unicode="&#x2c7;" 
d="M409 807h-66l-97 -105l-98 105h-66l128 -139h76z" />
    <glyph glyph-name="dotaccent" unicode="&#x2d9;" 
d="M299 734q0 20 -15 35t-35 15t-35 -14.5t-15 -35.5q0 -20 14.5 -34.5t35.5 -14.5t35.5 14.5t14.5 34.5z" />
    <glyph glyph-name="dotlessi" unicode="&#x131;" horiz-adv-x="290" 
d="M177 0v615h-65v-615h65z" />
    <glyph glyph-name="fi" unicode="&#xfb01;" horiz-adv-x="1001" 
d="M888 0v615h-65v-615h65zM696 552v63h-584v-615h65v294h361v63h-361v195h519z" />
    <glyph glyph-name="fl" unicode="&#xfb02;" horiz-adv-x="1369" 
d="M1364 0v63h-476v552h-65v-615h541zM696 552v63h-584v-615h65v294h361v63h-361v195h519z" />
    <glyph glyph-name="fraction" unicode="&#x2044;" horiz-adv-x="268" 
d="M480 724h-79l-613 -734h80z" />
    <glyph glyph-name="fraction" unicode="&#x2215;" horiz-adv-x="268" 
d="M480 724h-79l-613 -734h80z" />
    <glyph glyph-name="hungarumlaut" unicode="&#x2dd;" 
d="M417 808h-79l-44 -139h33zM284 808h-79l-44 -139h33z" />
    <glyph glyph-name="lslash" unicode="&#x142;" horiz-adv-x="658" 
d="M653 0v63h-476v168l176 119v73l-176 -119v311h-65v-355l-52 -35v-73l52 35v-187h541z" />
    <glyph glyph-name="minus" unicode="&#x2212;" horiz-adv-x="833" 
d="M709 322h-585v-48h585v48z" />
    <glyph glyph-name="ogonek" unicode="&#x2db;" 
d="M303 -193l-7 22q-29 -10 -47 -10q-31 0 -49.5 19.5t-18.5 52.5q0 70 94 121h-46q-60 -26 -90 -57t-30 -71q0 -43 29 -67t84 -24q39 0 81 14z" />
    <glyph glyph-name="ring" unicode="&#x2da;" 
d="M348 748q0 16 -7.5 30.5t-20.5 25t-31.5 17t-39.5 6.5t-39.5 -6.5t-31.5 -17t-20.5 -25t-7.5 -30.5t7.5 -30.5t20.5 -25t31.5 -17t39.5 -6.5t39.5 6.5t31.5 17t20.5 25t7.5 30.5zM310 748q0 -19 -16 -32.5t-45 -13.5q-28 0 -44 13t-16 33t16.5 33.5t43.5 13.5
q28 0 44.5 -13.5t16.5 -33.5z" />
    <glyph glyph-name="notequal" unicode="&#x2260;" horiz-adv-x="540" 
d="M231 123l-76 -143l-43 24l64 119h-156v50h183l73 139h-256v50h283l78 146l42 -23l-65 -123h162v-50h-189l-74 -139h263v-50h-289z" />
    <glyph glyph-name="infinity" unicode="&#x221e;" horiz-adv-x="700" 
d="M307 312q-12 15 -25 30.5t-28.5 27.5t-33 20t-38.5 8t-40 -8.5t-33.5 -23t-22.5 -34t-8 -41.5q0 -21 8 -40t21.5 -33t32 -22t39.5 -8q28 0 48 9.5t35.5 25.5t28.5 35t28 39zM623 292q0 21 -8 39.5t-21.5 33t-31.5 22.5t-39 8t-41 -11.5t-38 -28.5t-33.5 -35.5
t-27.5 -33.5q12 -17 26 -35t31 -32.5t36.5 -24t42.5 -9.5q21 0 40 8.5t33 23t22.5 34t8.5 41.5zM670 293q0 -33 -11.5 -61.5t-31.5 -49.5t-47.5 -33t-59.5 -12q-31 0 -54.5 9t-42.5 24.5t-35.5 36.5t-32.5 44q-17 -22 -34.5 -42t-38 -35.5t-44.5 -25t-53 -9.5
q-33 0 -61 11.5t-48.5 31.5t-32.5 47.5t-12 59.5q0 33 11.5 61.5t31.5 49.5t48 32.5t60 11.5q28 0 53.5 -10t47.5 -26t40 -36.5t33 -42.5q35 50 72.5 82.5t85.5 32.5q34 0 62.5 -11.5t49.5 -31.5t32.5 -47.5t11.5 -60.5z" />
    <glyph glyph-name="lessequal" unicode="&#x2264;" horiz-adv-x="540" 
d="M20 -26v42h499v-42h-499zM20 267v51l499 191v-47l-448 -170l448 -168v-48z" />
    <glyph glyph-name="greaterequal" unicode="&#x2265;" horiz-adv-x="540" 
d="M21 -26v42h499v-42h-499zM21 76v48l447 168l-447 170v47l499 -191v-51z" />
    <glyph glyph-name="partialdiff" unicode="&#x2202;" horiz-adv-x="530" 
d="M389 257q0 32 -11 60.5t-28 50.5t-38 34.5t-41 12.5q-34 0 -57.5 -11t-38.5 -35.5t-22 -63.5t-7 -95q0 -102 33 -154.5t94 -52.5q30 0 51.5 19.5t36 53.5t21.5 80.5t7 100.5zM475 357q0 -108 -11.5 -180.5t-36 -116t-62.5 -62t-91 -18.5q-46 0 -87 15t-72 44.5t-49 74
t-18 103.5q0 46 13 86.5t39.5 71.5t66.5 49t93 18q42 0 76 -21.5t54 -52.5q0 49 -1 85t-6 62q-7 40 -24.5 68t-41 45t-49.5 24.5t-50 7.5q-35 0 -68.5 -15t-56.5 -34l-19 25q33 26 66.5 41.5t71.5 15.5q56 0 104 -21.5t83.5 -64t55.5 -105.5t20 -145z" />
    <glyph glyph-name="summation" unicode="&#x2211;" horiz-adv-x="720" 
d="M668 68h-24q-10 -83 -39 -97q-11 -5 -32 -8.5t-50 -3.5h-377l252 399l-176 296q-2 4 -1 9.5t11 5.5h246q38 0 65.5 -12t38.5 -35q6 -11 10 -26t7 -38h25q-2 14 -5.5 32.5t-5.5 38.5q-1 10 -2 26t-2 33t-2 31.5t-1 22.5t-11 8h-532v-10l256 -433l-265 -419v-10h595
q9 0 9 11q0 17 0.5 38.5t2.5 42.5q1 10 2 23.5t1.5 28t1.5 27t2 19.5z" />
    <glyph glyph-name="product" unicode="&#x220f;" horiz-adv-x="810" 
d="M764 -122v18l-35 1q-28 1 -35.5 6t-7.5 22v778q0 17 7.5 22t35.5 6l35 1v18h-718v-18l35 -1q28 -1 35.5 -6t7.5 -22v-778q0 -17 -7.5 -22t-35.5 -6l-35 -1v-18h250v18l-35 1q-28 1 -36.5 6t-8.5 22v753q0 35 33 35h305q40 0 40 -44v-744q0 -17 -7.5 -22t-35.5 -6l-35 -1
v-18h248z" />
    <glyph glyph-name="pi" unicode="&#x3c0;" horiz-adv-x="540" 
d="M533 491q-1 -23 -7.5 -55t-23.5 -51q-16 -17 -60 -17h-22q-11 0 -11 -14v-264q0 -26 2 -43t6 -27t11 -14t16 -4q11 0 22 11.5t17 38.5h25q-6 -31 -24.5 -51.5t-56.5 -20.5q-54 0 -77 29t-23 88v262q0 9 -9 9h-123q-10 0 -10 -11v-230q0 -28 -4.5 -54.5t-15.5 -47
t-30.5 -33t-49.5 -12.5q-35 0 -54 19.5t-24 52.5h27q6 -25 20 -37.5t32 -12.5q29 0 48 30t19 84v242q0 10 -9 10h-37q-20 0 -33 -1.5t-20.5 -6t-11 -11.5t-5.5 -17h-23q4 64 33 91q22 21 62 21h324q21 0 35 3t22 9t12.5 14.5t6.5 20.5h24z" />
    <glyph glyph-name="integral" unicode="&#x222b;" horiz-adv-x="540" 
d="M463 690q0 9 -6.5 19.5t-19 20t-30.5 15.5t-40 6q-43 0 -68 -16t-38 -42t-17 -58t-4 -65v-564q0 -58 -11.5 -84t-42.5 -26q-18 0 -28.5 4.5t-10.5 11.5q0 9 4.5 12.5t4.5 21.5q0 16 -10 25.5t-29 9.5q-22 0 -31.5 -13.5t-9.5 -27.5q0 -9 7 -20t19.5 -20t30.5 -15.5
t41 -6.5q43 0 68 16t38 41.5t17 57.5t4 65v564q0 47 14 79.5t46 32.5q22 0 27.5 -5.5t5.5 -12.5q0 -5 -2 -7.5t-5 -5.5t-5 -8t-2 -14q0 -17 13.5 -27t30.5 -10q22 0 30.5 14t8.5 32z" />
    <glyph glyph-name="Omega" unicode="&#x3a9;" horiz-adv-x="750" 
d="M688 170q-2 -17 -3.5 -38t-3.5 -43q-2 -26 -2.5 -50t0.5 -41q-23 2 -55 2h-66q-36 0 -70.5 -0.5t-57.5 -1.5q-7 0 -9 2t-2 10v162q76 8 111 68.5t35 181.5q0 130 -46.5 189t-143.5 59t-140 -59t-43 -189q0 -230 137 -250v-163q0 -7 -1.5 -9t-9.5 -2q-24 1 -59.5 1.5
t-70.5 0.5q-38 0 -69.5 -0.5t-47.5 -1.5q1 22 0.5 45.5t-1.5 47.5q-1 21 -2.5 41t-4.5 38h23q4 -29 8 -50.5t14 -35.5t29 -21t53 -7h99q8 0 8 8v83q-48 7 -88.5 33.5t-70 65.5t-46 85.5t-16.5 92.5q0 60 22 109.5t62 85t95 55t121 19.5q65 0 120.5 -18.5t96.5 -53.5
t64.5 -85t23.5 -113q0 -51 -16.5 -98t-47 -84t-73 -62t-93.5 -32v-82q0 -9 8 -9h101q58 0 80.5 27t22.5 87h25z" />
    <glyph glyph-name="Omega" unicode="&#x2126;" horiz-adv-x="750" 
d="M688 170q-2 -17 -3.5 -38t-3.5 -43q-2 -26 -2.5 -50t0.5 -41q-23 2 -55 2h-66q-36 0 -70.5 -0.5t-57.5 -1.5q-7 0 -9 2t-2 10v162q76 8 111 68.5t35 181.5q0 130 -46.5 189t-143.5 59t-140 -59t-43 -189q0 -230 137 -250v-163q0 -7 -1.5 -9t-9.5 -2q-24 1 -59.5 1.5
t-70.5 0.5q-38 0 -69.5 -0.5t-47.5 -1.5q1 22 0.5 45.5t-1.5 47.5q-1 21 -2.5 41t-4.5 38h23q4 -29 8 -50.5t14 -35.5t29 -21t53 -7h99q8 0 8 8v83q-48 7 -88.5 33.5t-70 65.5t-46 85.5t-16.5 92.5q0 60 22 109.5t62 85t95 55t121 19.5q65 0 120.5 -18.5t96.5 -53.5
t64.5 -85t23.5 -113q0 -51 -16.5 -98t-47 -84t-73 -62t-93.5 -32v-82q0 -9 8 -9h101q58 0 80.5 27t22.5 87h25z" />
    <glyph glyph-name="radical" unicode="&#x221a;" horiz-adv-x="540" 
d="M473 750h-43l-153 -811l-154 322l-93 -39l19 -34l46 20l159 -330h51z" />
    <glyph glyph-name="approxequal" unicode="&#x2248;" horiz-adv-x="540" 
d="M532 230q-7 -63 -39 -98t-83 -35q-35 0 -72 11.5t-73.5 25.5t-71 25.5t-63.5 11.5q-31 0 -53 -22.5t-27 -59.5h-41q4 25 6 35t7 24q14 35 43.5 55.5t66.5 20.5q35 0 71.5 -11.5t72.5 -25t70 -25t65 -11.5q38 0 55.5 23.5t25.5 55.5h40zM532 396q-3 -25 -11 -49
t-22.5 -42.5t-36 -30t-51.5 -11.5q-35 0 -72.5 11.5t-74 25.5t-71 25.5t-62.5 11.5q-31 0 -53.5 -22.5t-27.5 -59.5h-41q2 13 3 21t2.5 14t3 11t4.5 12q14 35 43.5 56t66.5 21q34 0 70.5 -11.5t72.5 -25t71 -25t66 -11.5q36 0 55 23.5t25 55.5h40z" />
    <glyph glyph-name="Delta" unicode="&#x394;" horiz-adv-x="540" 
d="M270 614l-244 -547q-5 -11 -3.5 -14t9.5 -3h454q12 0 13.5 4t-1.5 12zM-48 0l314 693h34l289 -693h-637z" />
    <glyph glyph-name="Delta" unicode="&#x2206;" horiz-adv-x="540" 
d="M270 614l-244 -547q-5 -11 -3.5 -14t9.5 -3h454q12 0 13.5 4t-1.5 12zM-48 0l314 693h34l289 -693h-637z" />
    <glyph glyph-name="lozenge" unicode="&#x25ca;" horiz-adv-x="540" 
d="M270 635l-138 -286l138 -308l139 308zM299 -20h-59l-167 369l167 344h59l169 -344z" />
    <glyph glyph-name="nonbreakingspace" horiz-adv-x="270" 
 />
    </font>
</defs>
</svg>
